<svg width="268" height="65" viewBox="0 0 268 65" fill="none" xmlns="http://www.w3.org/2000/svg">
<g filter="url(#filter0_d_23_173)">
<rect x="4" width="260" height="57" rx="17" fill="black"/>
<path d="M49.4148 33H48.3068L51.5114 24.2727H52.6023L55.8068 33H54.6989L52.0909 25.6534H52.0227L49.4148 33ZM49.8239 29.5909H54.2898V30.5284H49.8239V29.5909ZM55.6694 25.2102V24.2727H62.2148V25.2102H59.4705V33H58.4137V25.2102H55.6694ZM63.8459 33V24.2727H66.7947C67.4766 24.2727 68.0362 24.3892 68.4737 24.6222C68.9112 24.8523 69.2351 25.169 69.4453 25.5724C69.6555 25.9759 69.7607 26.4347 69.7607 26.9489C69.7607 27.4631 69.6555 27.919 69.4453 28.3168C69.2351 28.7145 68.9126 29.027 68.478 29.2543C68.0433 29.4787 67.4879 29.5909 66.8118 29.5909H64.4254V28.6364H66.7777C67.2436 28.6364 67.6186 28.5682 67.9027 28.4318C68.1896 28.2955 68.397 28.1023 68.5249 27.8523C68.6555 27.5994 68.7209 27.2983 68.7209 26.9489C68.7209 26.5994 68.6555 26.294 68.5249 26.0327C68.3942 25.7713 68.1854 25.5696 67.8984 25.4276C67.6115 25.2827 67.2322 25.2102 66.7607 25.2102H64.9027V33H63.8459ZM67.9538 29.0795L70.1016 33H68.8743L66.7607 29.0795H67.9538ZM72.5785 24.2727V33H71.5217V24.2727H72.5785ZM74.6974 33V24.2727H77.7486C78.3565 24.2727 78.858 24.3778 79.2528 24.5881C79.6477 24.7955 79.9418 25.0753 80.1349 25.4276C80.3281 25.777 80.4247 26.1648 80.4247 26.5909C80.4247 26.9659 80.358 27.2756 80.2244 27.5199C80.0938 27.7642 79.9205 27.9574 79.7045 28.0994C79.4915 28.2415 79.2599 28.3466 79.0099 28.4148V28.5C79.277 28.517 79.5455 28.6108 79.8153 28.7812C80.0852 28.9517 80.3111 29.196 80.4929 29.5142C80.6747 29.8324 80.7656 30.2216 80.7656 30.6818C80.7656 31.1193 80.6662 31.5128 80.4673 31.8622C80.2685 32.2116 79.9545 32.4886 79.5256 32.6932C79.0966 32.8977 78.5384 33 77.8509 33H74.6974ZM75.7543 32.0625H77.8509C78.5412 32.0625 79.0313 31.929 79.321 31.6619C79.6136 31.392 79.7599 31.0653 79.7599 30.6818C79.7599 30.3864 79.6847 30.1136 79.5341 29.8636C79.3835 29.6108 79.169 29.4091 78.8906 29.2585C78.6122 29.1051 78.2827 29.0284 77.902 29.0284H75.7543V32.0625ZM75.7543 28.108H77.7145C78.0327 28.108 78.3196 28.0455 78.5753 27.9205C78.8338 27.7955 79.0384 27.6193 79.1889 27.392C79.3423 27.1648 79.419 26.8977 79.419 26.5909C79.419 26.2074 79.2855 25.8821 79.0185 25.6151C78.7514 25.3452 78.3281 25.2102 77.7486 25.2102H75.7543V28.108ZM88.2294 24.2727H89.2862V30.0511C89.2862 30.6477 89.1456 31.1804 88.8643 31.6491C88.5859 32.1151 88.1925 32.483 87.6839 32.7528C87.1754 33.0199 86.5788 33.1534 85.8942 33.1534C85.2095 33.1534 84.6129 33.0199 84.1044 32.7528C83.5959 32.483 83.201 32.1151 82.9197 31.6491C82.6413 31.1804 82.5021 30.6477 82.5021 30.0511V24.2727H83.5589V29.9659C83.5589 30.392 83.6527 30.7713 83.8402 31.1037C84.0277 31.4332 84.2947 31.6932 84.6413 31.8835C84.9908 32.071 85.4084 32.1648 85.8942 32.1648C86.38 32.1648 86.7976 32.071 87.147 31.8835C87.4964 31.6932 87.7635 31.4332 87.9482 31.1037C88.1357 30.7713 88.2294 30.392 88.2294 29.9659V24.2727ZM90.9194 25.2102V24.2727H97.4648V25.2102H94.7205V33H93.6637V25.2102H90.9194ZM99.0959 33V24.2727H104.363V25.2102H100.153V28.1591H104.09V29.0966H100.153V32.0625H104.431V33H99.0959ZM111.04 26.4545C110.989 26.0227 110.782 25.6875 110.418 25.4489C110.055 25.2102 109.609 25.0909 109.08 25.0909C108.694 25.0909 108.356 25.1534 108.066 25.2784C107.779 25.4034 107.555 25.5753 107.393 25.794C107.234 26.0128 107.154 26.2614 107.154 26.5398C107.154 26.7727 107.21 26.973 107.32 27.1406C107.434 27.3054 107.579 27.4432 107.755 27.554C107.931 27.6619 108.116 27.7514 108.309 27.8224C108.502 27.8906 108.68 27.946 108.842 27.9886L109.728 28.2273C109.955 28.2869 110.208 28.3693 110.487 28.4744C110.768 28.5795 111.036 28.723 111.292 28.9048C111.55 29.0838 111.763 29.3139 111.931 29.5952C112.099 29.8764 112.183 30.2216 112.183 30.6307C112.183 31.1023 112.059 31.5284 111.812 31.9091C111.567 32.2898 111.21 32.5923 110.738 32.8168C110.269 33.0412 109.7 33.1534 109.029 33.1534C108.404 33.1534 107.863 33.0526 107.406 32.8509C106.951 32.6491 106.593 32.3679 106.332 32.0071C106.073 31.6463 105.927 31.2273 105.893 30.75H106.984C107.012 31.0795 107.123 31.3523 107.316 31.5682C107.512 31.7812 107.759 31.9403 108.058 32.0455C108.359 32.1477 108.683 32.1989 109.029 32.1989C109.433 32.1989 109.795 32.1335 110.116 32.0028C110.437 31.8693 110.691 31.6847 110.879 31.4489C111.066 31.2102 111.16 30.9318 111.16 30.6136C111.16 30.3239 111.079 30.0881 110.917 29.9062C110.755 29.7244 110.542 29.5767 110.278 29.4631C110.013 29.3494 109.728 29.25 109.421 29.1648L108.347 28.858C107.665 28.6619 107.126 28.3821 106.728 28.0185C106.33 27.6548 106.131 27.179 106.131 26.5909C106.131 26.1023 106.263 25.6761 106.528 25.3125C106.795 24.946 107.153 24.6619 107.602 24.4602C108.053 24.2557 108.558 24.1534 109.114 24.1534C109.677 24.1534 110.177 24.2543 110.614 24.456C111.052 24.6548 111.398 24.9276 111.654 25.2741C111.913 25.6207 112.049 26.0142 112.063 26.4545H111.04Z" fill="white"/>
<path d="M197.7 25.8889H207.9C209.253 25.8889 210.55 26.2167 211.506 26.8001C212.463 27.3836 213 28.1749 213 29C213 29.8251 212.463 30.6164 211.506 31.1999C210.55 31.7833 209.253 32.1111 207.9 32.1111H197.7L187.5 43H179.85L184.95 32.1111H174.75L169.65 35.2222H162L167.1 29L162 22.7778H169.65L174.75 25.8889H184.95L179.85 15H187.5L197.7 25.8889Z" stroke="white" stroke-width="2" stroke-linecap="round" stroke-linejoin="round"/>
</g>
<defs>
<filter id="filter0_d_23_173" x="0" y="0" width="268" height="65" filterUnits="userSpaceOnUse" color-interpolation-filters="sRGB">
<feFlood flood-opacity="0" result="BackgroundImageFix"/>
<feColorMatrix in="SourceAlpha" type="matrix" values="0 0 0 0 0 0 0 0 0 0 0 0 0 0 0 0 0 0 127 0" result="hardAlpha"/>
<feOffset dy="4"/>
<feGaussianBlur stdDeviation="2"/>
<feComposite in2="hardAlpha" operator="out"/>
<feColorMatrix type="matrix" values="0 0 0 0 0 0 0 0 0 0 0 0 0 0 0 0 0 0 0.25 0"/>
<feBlend mode="normal" in2="BackgroundImageFix" result="effect1_dropShadow_23_173"/>
<feBlend mode="normal" in="SourceGraphic" in2="effect1_dropShadow_23_173" result="shape"/>
</filter>
</defs>
</svg>
