<svg width="53" height="53" viewBox="0 0 53 53" fill="none" xmlns="http://www.w3.org/2000/svg">
<circle cx="26.5" cy="26.5" r="26.5" fill="black"/>
<path d="M25.5 12C18.0449 12 12 18.0449 12 25.5C12 32.9551 18.0449 39 25.5 39C32.9551 39 39 32.9551 39 25.5C39 18.0449 32.9551 12 25.5 12ZM25.5 36.7098C19.3105 36.7098 14.2902 31.6895 14.2902 25.5C14.2902 22.8181 15.2334 20.3531 16.8064 18.4246L32.5754 34.1936C30.6469 35.7666 28.1819 36.7098 25.5 36.7098ZM34.1936 32.5754L18.4246 16.8064C20.3531 15.2334 22.8181 14.2902 25.5 14.2902C31.6895 14.2902 36.7098 19.3105 36.7098 25.5C36.7098 28.1819 35.7666 30.6469 34.1936 32.5754Z" fill="white"/>
</svg>
