<svg width="260" height="59" viewBox="0 0 260 59" fill="none" xmlns="http://www.w3.org/2000/svg">
<rect width="260" height="57" rx="17" fill="black"/>
<path d="M45.0568 24.2727H46.3182L49.2841 31.517H49.3864L52.3523 24.2727H53.6136V33H52.625V26.3693H52.5398L49.8125 33H48.858L46.1307 26.3693H46.0455V33H45.0568V24.2727ZM55.7326 33V24.2727H60.9996V25.2102H56.7894V28.1591H60.7269V29.0966H56.7894V32.0625H61.0678V33H55.7326ZM62.4272 25.2102V24.2727H68.9727V25.2102H66.2283V33H65.1715V25.2102H62.4272ZM77.604 28.6364C77.604 29.5568 77.4379 30.3523 77.1055 31.0227C76.7731 31.6932 76.3171 32.2102 75.7376 32.5739C75.158 32.9375 74.4961 33.1193 73.7518 33.1193C73.0075 33.1193 72.3455 32.9375 71.766 32.5739C71.1864 32.2102 70.7305 31.6932 70.3981 31.0227C70.0657 30.3523 69.8995 29.5568 69.8995 28.6364C69.8995 27.7159 70.0657 26.9205 70.3981 26.25C70.7305 25.5795 71.1864 25.0625 71.766 24.6989C72.3455 24.3352 73.0075 24.1534 73.7518 24.1534C74.4961 24.1534 75.158 24.3352 75.7376 24.6989C76.3171 25.0625 76.7731 25.5795 77.1055 26.25C77.4379 26.9205 77.604 27.7159 77.604 28.6364ZM76.5813 28.6364C76.5813 27.8807 76.4549 27.2429 76.2021 26.723C75.9521 26.2031 75.6126 25.8097 75.1836 25.5426C74.7575 25.2756 74.2802 25.142 73.7518 25.142C73.2234 25.142 72.7447 25.2756 72.3157 25.5426C71.8896 25.8097 71.5501 26.2031 71.2972 26.723C71.0472 27.2429 70.9222 27.8807 70.9222 28.6364C70.9222 29.392 71.0472 30.0298 71.2972 30.5497C71.5501 31.0696 71.8896 31.4631 72.3157 31.7301C72.7447 31.9972 73.2234 32.1307 73.7518 32.1307C74.2802 32.1307 74.7575 31.9972 75.1836 31.7301C75.6126 31.4631 75.9521 31.0696 76.2021 30.5497C76.4549 30.0298 76.5813 29.392 76.5813 28.6364ZM82.0742 33H79.381V24.2727H82.1935C83.0401 24.2727 83.7646 24.4474 84.3668 24.7969C84.9691 25.1435 85.4308 25.642 85.7518 26.2926C86.0728 26.9403 86.2333 27.7159 86.2333 28.6193C86.2333 29.5284 86.0714 30.3111 85.7475 30.9673C85.4237 31.6207 84.9521 32.1236 84.3327 32.4759C83.7134 32.8253 82.9606 33 82.0742 33ZM80.4379 32.0625H82.006C82.7276 32.0625 83.3256 31.9233 83.8001 31.6449C84.2745 31.3665 84.6282 30.9702 84.8612 30.456C85.0941 29.9418 85.2106 29.3295 85.2106 28.6193C85.2106 27.9148 85.0955 27.3082 84.8654 26.7997C84.6353 26.2884 84.2915 25.8963 83.8342 25.6236C83.3768 25.348 82.8072 25.2102 82.1254 25.2102H80.4379V32.0625ZM95.3697 28.6364C95.3697 29.5568 95.2035 30.3523 94.8711 31.0227C94.5387 31.6932 94.0827 32.2102 93.5032 32.5739C92.9237 32.9375 92.2617 33.1193 91.5174 33.1193C90.7731 33.1193 90.1112 32.9375 89.5316 32.5739C88.9521 32.2102 88.4961 31.6932 88.1637 31.0227C87.8313 30.3523 87.6651 29.5568 87.6651 28.6364C87.6651 27.7159 87.8313 26.9205 88.1637 26.25C88.4961 25.5795 88.9521 25.0625 89.5316 24.6989C90.1112 24.3352 90.7731 24.1534 91.5174 24.1534C92.2617 24.1534 92.9237 24.3352 93.5032 24.6989C94.0827 25.0625 94.5387 25.5795 94.8711 26.25C95.2035 26.9205 95.3697 27.7159 95.3697 28.6364ZM94.3469 28.6364C94.3469 27.8807 94.2205 27.2429 93.9677 26.723C93.7177 26.2031 93.3782 25.8097 92.9492 25.5426C92.5231 25.2756 92.0458 25.142 91.5174 25.142C90.989 25.142 90.5103 25.2756 90.0813 25.5426C89.6552 25.8097 89.3157 26.2031 89.0629 26.723C88.8129 27.2429 88.6879 27.8807 88.6879 28.6364C88.6879 29.392 88.8129 30.0298 89.0629 30.5497C89.3157 31.0696 89.6552 31.4631 90.0813 31.7301C90.5103 31.9972 90.989 32.1307 91.5174 32.1307C92.0458 32.1307 92.5231 31.9972 92.9492 31.7301C93.3782 31.4631 93.7177 31.0696 93.9677 30.5497C94.2205 30.0298 94.3469 29.392 94.3469 28.6364ZM101.919 26.4545C101.868 26.0227 101.661 25.6875 101.297 25.4489C100.934 25.2102 100.488 25.0909 99.9592 25.0909C99.5728 25.0909 99.2347 25.1534 98.945 25.2784C98.658 25.4034 98.4336 25.5753 98.2717 25.794C98.1126 26.0128 98.033 26.2614 98.033 26.5398C98.033 26.7727 98.0884 26.973 98.1992 27.1406C98.3129 27.3054 98.4577 27.4432 98.6339 27.554C98.81 27.6619 98.9947 27.7514 99.1879 27.8224C99.381 27.8906 99.5586 27.946 99.7205 27.9886L100.607 28.2273C100.834 28.2869 101.087 28.3693 101.365 28.4744C101.647 28.5795 101.915 28.723 102.171 28.9048C102.429 29.0838 102.642 29.3139 102.81 29.5952C102.978 29.8764 103.061 30.2216 103.061 30.6307C103.061 31.1023 102.938 31.5284 102.691 31.9091C102.446 32.2898 102.088 32.5923 101.617 32.8168C101.148 33.0412 100.578 33.1534 99.908 33.1534C99.283 33.1534 98.7418 33.0526 98.2844 32.8509C97.8299 32.6491 97.4719 32.3679 97.2106 32.0071C96.9521 31.6463 96.8058 31.2273 96.7717 30.75H97.8626C97.891 31.0795 98.0018 31.3523 98.195 31.5682C98.391 31.7812 98.6381 31.9403 98.9364 32.0455C99.2376 32.1477 99.5614 32.1989 99.908 32.1989C100.311 32.1989 100.674 32.1335 100.995 32.0028C101.316 31.8693 101.57 31.6847 101.757 31.4489C101.945 31.2102 102.039 30.9318 102.039 30.6136C102.039 30.3239 101.958 30.0881 101.796 29.9062C101.634 29.7244 101.421 29.5767 101.157 29.4631C100.892 29.3494 100.607 29.25 100.3 29.1648L99.2262 28.858C98.5444 28.6619 98.0046 28.3821 97.6069 28.0185C97.2092 27.6548 97.0103 27.179 97.0103 26.5909C97.0103 26.1023 97.1424 25.6761 97.4066 25.3125C97.6737 24.946 98.0316 24.6619 98.4805 24.4602C98.9322 24.2557 99.4364 24.1534 99.9933 24.1534C100.556 24.1534 101.056 24.2543 101.493 24.456C101.931 24.6548 102.277 24.9276 102.533 25.2741C102.792 25.6207 102.928 26.0142 102.942 26.4545H101.919Z" fill="white"/>
<path d="M193.7 25.8889H203.9C205.253 25.8889 206.55 26.2167 207.506 26.8001C208.463 27.3836 209 28.1749 209 29C209 29.8251 208.463 30.6164 207.506 31.1999C206.55 31.7833 205.253 32.1111 203.9 32.1111H193.7L183.5 43H175.85L180.95 32.1111H170.75L165.65 35.2222H158L163.1 29L158 22.7778H165.65L170.75 25.8889H180.95L175.85 15H183.5L193.7 25.8889Z" stroke="white" stroke-width="2" stroke-linecap="round" stroke-linejoin="round"/>
</svg>
