<svg width="287" height="39" viewBox="0 0 287 39" fill="none" xmlns="http://www.w3.org/2000/svg">
<path fill-rule="evenodd" clip-rule="evenodd" d="M170 36.6667C170 36.4899 170.324 36.3203 170.902 36.1953C171.479 36.0702 172.262 36 173.079 36H283.921C284.738 36 285.521 36.0702 286.098 36.1953C286.676 36.3203 287 36.4899 287 36.6667C287 36.8435 286.676 37.013 286.098 37.1381C285.521 37.2631 284.738 37.3333 283.921 37.3333H173.079C172.262 37.3333 171.479 37.2631 170.902 37.1381C170.324 37.013 170 36.8435 170 36.6667Z" fill="white"/>
<path d="M217.903 21V20.233L220.784 17.0795C221.122 16.7102 221.401 16.3892 221.619 16.1165C221.838 15.8409 222 15.5824 222.105 15.3409C222.213 15.0966 222.267 14.8409 222.267 14.5739C222.267 14.267 222.193 14.0014 222.045 13.777C221.901 13.5526 221.702 13.3793 221.449 13.2571C221.196 13.1349 220.912 13.0739 220.597 13.0739C220.261 13.0739 219.969 13.1435 219.719 13.2827C219.472 13.419 219.28 13.6108 219.143 13.858C219.01 14.1051 218.943 14.3949 218.943 14.7273H217.938C217.938 14.2159 218.055 13.767 218.291 13.3807C218.527 12.9943 218.848 12.6932 219.254 12.4773C219.663 12.2614 220.122 12.1534 220.631 12.1534C221.142 12.1534 221.595 12.2614 221.99 12.4773C222.385 12.6932 222.695 12.9844 222.919 13.3509C223.143 13.7173 223.256 14.125 223.256 14.5739C223.256 14.8949 223.197 15.2088 223.081 15.5156C222.967 15.8196 222.768 16.1591 222.484 16.5341C222.203 16.9062 221.812 17.3608 221.312 17.8977L219.352 19.9943V20.0625H223.409V21H217.903ZM228.016 21.1193C227.374 21.1193 226.827 20.9446 226.375 20.5952C225.923 20.2429 225.578 19.733 225.339 19.0653C225.101 18.3949 224.982 17.5852 224.982 16.6364C224.982 15.6932 225.101 14.8878 225.339 14.2202C225.581 13.5497 225.928 13.0384 226.379 12.6861C226.834 12.331 227.379 12.1534 228.016 12.1534C228.652 12.1534 229.196 12.331 229.648 12.6861C230.102 13.0384 230.449 13.5497 230.688 14.2202C230.929 14.8878 231.05 15.6932 231.05 16.6364C231.05 17.5852 230.93 18.3949 230.692 19.0653C230.453 19.733 230.108 20.2429 229.656 20.5952C229.205 20.9446 228.658 21.1193 228.016 21.1193ZM228.016 20.1818C228.652 20.1818 229.146 19.875 229.499 19.2614C229.851 18.6477 230.027 17.7727 230.027 16.6364C230.027 15.8807 229.946 15.2372 229.784 14.706C229.625 14.1747 229.395 13.7699 229.094 13.4915C228.795 13.2131 228.436 13.0739 228.016 13.0739C227.385 13.0739 226.892 13.3849 226.537 14.0071C226.182 14.6264 226.004 15.5028 226.004 16.6364C226.004 17.392 226.084 18.0341 226.243 18.5625C226.402 19.0909 226.631 19.4929 226.929 19.7685C227.23 20.044 227.592 20.1818 228.016 20.1818ZM235.516 21.1193C234.874 21.1193 234.327 20.9446 233.875 20.5952C233.423 20.2429 233.078 19.733 232.839 19.0653C232.601 18.3949 232.482 17.5852 232.482 16.6364C232.482 15.6932 232.601 14.8878 232.839 14.2202C233.081 13.5497 233.428 13.0384 233.879 12.6861C234.334 12.331 234.879 12.1534 235.516 12.1534C236.152 12.1534 236.696 12.331 237.148 12.6861C237.602 13.0384 237.949 13.5497 238.188 14.2202C238.429 14.8878 238.55 15.6932 238.55 16.6364C238.55 17.5852 238.43 18.3949 238.192 19.0653C237.953 19.733 237.608 20.2429 237.156 20.5952C236.705 20.9446 236.158 21.1193 235.516 21.1193ZM235.516 20.1818C236.152 20.1818 236.646 19.875 236.999 19.2614C237.351 18.6477 237.527 17.7727 237.527 16.6364C237.527 15.8807 237.446 15.2372 237.284 14.706C237.125 14.1747 236.895 13.7699 236.594 13.4915C236.295 13.2131 235.936 13.0739 235.516 13.0739C234.885 13.0739 234.392 13.3849 234.037 14.0071C233.682 14.6264 233.504 15.5028 233.504 16.6364C233.504 17.392 233.584 18.0341 233.743 18.5625C233.902 19.0909 234.131 19.4929 234.429 19.7685C234.73 20.044 235.092 20.1818 235.516 20.1818ZM243.118 21.1193C242.555 21.1193 242.054 21.0227 241.614 20.8295C241.176 20.6364 240.828 20.3679 240.57 20.0241C240.314 19.6776 240.175 19.2756 240.152 18.8182H241.226C241.249 19.0994 241.345 19.3423 241.516 19.5469C241.686 19.7486 241.909 19.9048 242.185 20.0156C242.46 20.1264 242.766 20.1818 243.101 20.1818C243.476 20.1818 243.808 20.1165 244.098 19.9858C244.388 19.8551 244.615 19.6733 244.78 19.4403C244.945 19.2074 245.027 18.9375 245.027 18.6307C245.027 18.3097 244.947 18.027 244.788 17.7827C244.629 17.5355 244.396 17.3423 244.089 17.2031C243.783 17.0639 243.408 16.9943 242.964 16.9943H242.266V16.0568H242.964C243.311 16.0568 243.615 15.9943 243.876 15.8693C244.141 15.7443 244.347 15.5682 244.494 15.3409C244.645 15.1136 244.72 14.8466 244.72 14.5398C244.72 14.2443 244.655 13.9872 244.524 13.7685C244.393 13.5497 244.209 13.3793 243.97 13.2571C243.734 13.1349 243.456 13.0739 243.135 13.0739C242.834 13.0739 242.55 13.1293 242.283 13.2401C242.018 13.348 241.803 13.5057 241.635 13.7131C241.467 13.9176 241.376 14.1648 241.362 14.4545H240.339C240.357 13.9972 240.494 13.5966 240.753 13.2528C241.011 12.9062 241.349 12.6364 241.767 12.4432C242.188 12.25 242.649 12.1534 243.152 12.1534C243.692 12.1534 244.155 12.2628 244.541 12.4815C244.928 12.6974 245.224 12.983 245.432 13.3381C245.639 13.6932 245.743 14.0767 245.743 14.4886C245.743 14.9801 245.614 15.3991 245.355 15.7457C245.099 16.0923 244.751 16.3324 244.311 16.4659V16.5341C244.862 16.625 245.293 16.8594 245.602 17.2372C245.912 17.6122 246.067 18.0767 246.067 18.6307C246.067 19.1051 245.938 19.5312 245.679 19.9091C245.423 20.2841 245.074 20.5795 244.631 20.7955C244.188 21.0114 243.683 21.1193 243.118 21.1193Z" fill="white"/>
<path opacity="0.2" fill-rule="evenodd" clip-rule="evenodd" d="M6.15796 37C6.15796 36.4696 7.13112 35.9609 8.86337 35.5858C10.5956 35.2107 12.945 35 15.3948 35H107.763C110.213 35 112.562 35.2107 114.295 35.5858C116.027 35.9609 117 36.4696 117 37C117 37.5304 116.027 38.0391 114.295 38.4142C112.562 38.7893 110.213 39 107.763 39H15.3948C12.945 39 10.5956 38.7893 8.86337 38.4142C7.13112 38.0391 6.15796 37.5304 6.15796 37Z" fill="white"/>
<rect width="117" height="34" rx="6" fill="black"/>
<path d="M39.0568 21V12.2727H40.0625V15.4943H40.1477C40.2216 15.3807 40.3239 15.2358 40.4545 15.0597C40.5881 14.8807 40.7784 14.7216 41.0256 14.5824C41.2756 14.4403 41.6136 14.3693 42.0398 14.3693C42.5909 14.3693 43.0767 14.5071 43.4972 14.7827C43.9176 15.0582 44.2457 15.4489 44.4815 15.9545C44.7173 16.4602 44.8352 17.0568 44.8352 17.7443C44.8352 18.4375 44.7173 19.0384 44.4815 19.5469C44.2457 20.0526 43.919 20.4446 43.5014 20.723C43.0838 20.9986 42.6023 21.1364 42.0568 21.1364C41.6364 21.1364 41.2997 21.0668 41.0469 20.9276C40.794 20.7855 40.5994 20.625 40.4631 20.446C40.3267 20.2642 40.2216 20.1136 40.1477 19.9943H40.0284V21H39.0568ZM40.0455 17.7273C40.0455 18.2216 40.1179 18.6577 40.2628 19.0355C40.4077 19.4105 40.6193 19.7045 40.8977 19.9176C41.1761 20.1278 41.517 20.233 41.9205 20.233C42.3409 20.233 42.6918 20.1222 42.973 19.9006C43.2571 19.6761 43.4702 19.375 43.6122 18.9972C43.7571 18.6165 43.8295 18.1932 43.8295 17.7273C43.8295 17.267 43.7585 16.8523 43.6165 16.483C43.4773 16.1108 43.2656 15.8168 42.9815 15.6009C42.7003 15.3821 42.3466 15.2727 41.9205 15.2727C41.5114 15.2727 41.1676 15.3764 40.8892 15.5838C40.6108 15.7884 40.4006 16.0753 40.2585 16.4446C40.1165 16.8111 40.0455 17.2386 40.0455 17.7273ZM47.3793 12.2727V21H46.3736V12.2727H47.3793ZM51.1474 21.1534C50.7326 21.1534 50.3562 21.0753 50.0181 20.919C49.68 20.7599 49.4116 20.5312 49.2127 20.233C49.0138 19.9318 48.9144 19.5682 48.9144 19.142C48.9144 18.767 48.9883 18.4631 49.136 18.2301C49.2837 17.9943 49.4812 17.8097 49.7283 17.6761C49.9755 17.5426 50.2482 17.4432 50.5465 17.3778C50.8477 17.3097 51.1502 17.2557 51.4542 17.2159C51.8519 17.1648 52.1744 17.1264 52.4215 17.1009C52.6715 17.0724 52.8533 17.0256 52.967 16.9602C53.0835 16.8949 53.1417 16.7812 53.1417 16.6193V16.5852C53.1417 16.1648 53.0266 15.8381 52.7965 15.6051C52.5692 15.3722 52.2241 15.2557 51.761 15.2557C51.2809 15.2557 50.9045 15.3608 50.6317 15.571C50.359 15.7812 50.1673 16.0057 50.0565 16.2443L49.1019 15.9034C49.2724 15.5057 49.4996 15.196 49.7837 14.9744C50.0707 14.75 50.3832 14.5937 50.7212 14.5057C51.0621 14.4148 51.3974 14.3693 51.7269 14.3693C51.9371 14.3693 52.1786 14.3949 52.4513 14.446C52.7269 14.4943 52.9925 14.5952 53.2482 14.7486C53.5067 14.902 53.7212 15.1335 53.8917 15.4432C54.0621 15.7528 54.1474 16.1676 54.1474 16.6875V21H53.1417V20.1136H53.0906C53.0224 20.2557 52.9087 20.4077 52.7496 20.5696C52.5906 20.7315 52.3789 20.8693 52.1147 20.983C51.8505 21.0966 51.5281 21.1534 51.1474 21.1534ZM51.3008 20.25C51.6985 20.25 52.0337 20.1719 52.3065 20.0156C52.582 19.8594 52.7894 19.6577 52.9286 19.4105C53.0707 19.1634 53.1417 18.9034 53.1417 18.6307V17.7102C53.0991 17.7614 53.0053 17.8082 52.8604 17.8509C52.7184 17.8906 52.5536 17.9261 52.3661 17.9574C52.1815 17.9858 52.0011 18.0114 51.8249 18.0341C51.6516 18.054 51.511 18.071 51.4031 18.0852C51.1417 18.1193 50.8974 18.1747 50.6701 18.2514C50.4457 18.3253 50.2638 18.4375 50.1246 18.5881C49.9883 18.7358 49.9201 18.9375 49.9201 19.1932C49.9201 19.5426 50.0494 19.8068 50.3079 19.9858C50.5692 20.1619 50.9002 20.25 51.3008 20.25ZM56.9886 17.0625V21H55.983V14.4545H56.9545V15.4773H57.0398C57.1932 15.1449 57.4261 14.8778 57.7386 14.6761C58.0511 14.4716 58.4545 14.3693 58.9489 14.3693C59.392 14.3693 59.7798 14.4602 60.1122 14.642C60.4446 14.821 60.7031 15.0938 60.8878 15.4602C61.0724 15.8239 61.1648 16.2841 61.1648 16.8409V21H60.1591V16.9091C60.1591 16.3949 60.0256 15.9943 59.7585 15.7074C59.4915 15.4176 59.125 15.2727 58.6591 15.2727C58.3381 15.2727 58.0511 15.3423 57.7983 15.4815C57.5483 15.6207 57.3509 15.8239 57.206 16.0909C57.0611 16.358 56.9886 16.6818 56.9886 17.0625ZM65.6616 21.1364C65.0479 21.1364 64.5195 20.9915 64.0763 20.7017C63.6332 20.4119 63.2923 20.0128 63.0536 19.5043C62.815 18.9957 62.6957 18.4148 62.6957 17.7614C62.6957 17.0966 62.8178 16.5099 63.0621 16.0014C63.3093 15.4901 63.6531 15.0909 64.0934 14.804C64.5366 14.5142 65.0536 14.3693 65.6445 14.3693C66.1048 14.3693 66.5195 14.4545 66.8888 14.625C67.2582 14.7955 67.5607 15.0341 67.7965 15.3409C68.0323 15.6477 68.1786 16.0057 68.2354 16.4148H67.2298C67.1531 16.1165 66.9826 15.8523 66.7184 15.6222C66.457 15.3892 66.1048 15.2727 65.6616 15.2727C65.2695 15.2727 64.9258 15.375 64.6303 15.5795C64.3377 15.7812 64.109 16.0668 63.9442 16.4361C63.7823 16.8026 63.7013 17.233 63.7013 17.7273C63.7013 18.233 63.7809 18.6733 63.94 19.0483C64.1019 19.4233 64.3292 19.7145 64.6218 19.9219C64.9173 20.1293 65.2638 20.233 65.6616 20.233C65.9229 20.233 66.1602 20.1875 66.3732 20.0966C66.5863 20.0057 66.7667 19.875 66.9144 19.7045C67.0621 19.5341 67.1673 19.3295 67.2298 19.0909H68.2354C68.1786 19.4773 68.038 19.8253 67.8136 20.1349C67.592 20.4418 67.2979 20.6861 66.9315 20.8679C66.5678 21.0469 66.1445 21.1364 65.6616 21.1364ZM72.3647 21.1364C71.7738 21.1364 71.2553 20.9957 70.8093 20.7145C70.3661 20.4332 70.0195 20.0398 69.7695 19.5341C69.5224 19.0284 69.3988 18.4375 69.3988 17.7614C69.3988 17.0795 69.5224 16.4844 69.7695 15.9759C70.0195 15.4673 70.3661 15.0724 70.8093 14.7912C71.2553 14.5099 71.7738 14.3693 72.3647 14.3693C72.9556 14.3693 73.4727 14.5099 73.9158 14.7912C74.3619 15.0724 74.7085 15.4673 74.9556 15.9759C75.2056 16.4844 75.3306 17.0795 75.3306 17.7614C75.3306 18.4375 75.2056 19.0284 74.9556 19.5341C74.7085 20.0398 74.3619 20.4332 73.9158 20.7145C73.4727 20.9957 72.9556 21.1364 72.3647 21.1364ZM72.3647 20.233C72.8136 20.233 73.1829 20.1179 73.4727 19.8878C73.7624 19.6577 73.9769 19.3551 74.1161 18.9801C74.2553 18.6051 74.3249 18.1989 74.3249 17.7614C74.3249 17.3239 74.2553 16.9162 74.1161 16.5384C73.9769 16.1605 73.7624 15.8551 73.4727 15.6222C73.1829 15.3892 72.8136 15.2727 72.3647 15.2727C71.9158 15.2727 71.5465 15.3892 71.2567 15.6222C70.967 15.8551 70.7525 16.1605 70.6133 16.5384C70.4741 16.9162 70.4045 17.3239 70.4045 17.7614C70.4045 18.1989 70.4741 18.6051 70.6133 18.9801C70.7525 19.3551 70.967 19.6577 71.2567 19.8878C71.5465 20.1179 71.9158 20.233 72.3647 20.233Z" fill="white"/>
</svg>
