<svg width="260" height="57" viewBox="0 0 260 57" fill="none" xmlns="http://www.w3.org/2000/svg">
<rect width="260" height="57" rx="17" fill="black"/>
<path d="M46.0568 22.2727H47.3182L50.2841 29.517H50.3864L53.3523 22.2727H54.6136V31H53.625V24.3693H53.5398L50.8125 31H49.858L47.1307 24.3693H47.0455V31H46.0568V22.2727ZM56.7326 31V22.2727H61.9996V23.2102H57.7894V26.1591H61.7269V27.0966H57.7894V30.0625H62.0678V31H56.7326ZM63.4272 23.2102V22.2727H69.9727V23.2102H67.2283V31H66.1715V23.2102H63.4272ZM78.604 26.6364C78.604 27.5568 78.4379 28.3523 78.1055 29.0227C77.7731 29.6932 77.3171 30.2102 76.7376 30.5739C76.158 30.9375 75.4961 31.1193 74.7518 31.1193C74.0075 31.1193 73.3455 30.9375 72.766 30.5739C72.1864 30.2102 71.7305 29.6932 71.3981 29.0227C71.0657 28.3523 70.8995 27.5568 70.8995 26.6364C70.8995 25.7159 71.0657 24.9205 71.3981 24.25C71.7305 23.5795 72.1864 23.0625 72.766 22.6989C73.3455 22.3352 74.0075 22.1534 74.7518 22.1534C75.4961 22.1534 76.158 22.3352 76.7376 22.6989C77.3171 23.0625 77.7731 23.5795 78.1055 24.25C78.4379 24.9205 78.604 25.7159 78.604 26.6364ZM77.5813 26.6364C77.5813 25.8807 77.4549 25.2429 77.2021 24.723C76.9521 24.2031 76.6126 23.8097 76.1836 23.5426C75.7575 23.2756 75.2802 23.142 74.7518 23.142C74.2234 23.142 73.7447 23.2756 73.3157 23.5426C72.8896 23.8097 72.5501 24.2031 72.2972 24.723C72.0472 25.2429 71.9222 25.8807 71.9222 26.6364C71.9222 27.392 72.0472 28.0298 72.2972 28.5497C72.5501 29.0696 72.8896 29.4631 73.3157 29.7301C73.7447 29.9972 74.2234 30.1307 74.7518 30.1307C75.2802 30.1307 75.7575 29.9972 76.1836 29.7301C76.6126 29.4631 76.9521 29.0696 77.2021 28.5497C77.4549 28.0298 77.5813 27.392 77.5813 26.6364ZM83.0742 31H80.381V22.2727H83.1935C84.0401 22.2727 84.7646 22.4474 85.3668 22.7969C85.9691 23.1435 86.4308 23.642 86.7518 24.2926C87.0728 24.9403 87.2333 25.7159 87.2333 26.6193C87.2333 27.5284 87.0714 28.3111 86.7475 28.9673C86.4237 29.6207 85.9521 30.1236 85.3327 30.4759C84.7134 30.8253 83.9606 31 83.0742 31ZM81.4379 30.0625H83.006C83.7276 30.0625 84.3256 29.9233 84.8001 29.6449C85.2745 29.3665 85.6282 28.9702 85.8612 28.456C86.0941 27.9418 86.2106 27.3295 86.2106 26.6193C86.2106 25.9148 86.0955 25.3082 85.8654 24.7997C85.6353 24.2884 85.2915 23.8963 84.8342 23.6236C84.3768 23.348 83.8072 23.2102 83.1254 23.2102H81.4379V30.0625ZM96.3697 26.6364C96.3697 27.5568 96.2035 28.3523 95.8711 29.0227C95.5387 29.6932 95.0827 30.2102 94.5032 30.5739C93.9237 30.9375 93.2617 31.1193 92.5174 31.1193C91.7731 31.1193 91.1112 30.9375 90.5316 30.5739C89.9521 30.2102 89.4961 29.6932 89.1637 29.0227C88.8313 28.3523 88.6651 27.5568 88.6651 26.6364C88.6651 25.7159 88.8313 24.9205 89.1637 24.25C89.4961 23.5795 89.9521 23.0625 90.5316 22.6989C91.1112 22.3352 91.7731 22.1534 92.5174 22.1534C93.2617 22.1534 93.9237 22.3352 94.5032 22.6989C95.0827 23.0625 95.5387 23.5795 95.8711 24.25C96.2035 24.9205 96.3697 25.7159 96.3697 26.6364ZM95.3469 26.6364C95.3469 25.8807 95.2205 25.2429 94.9677 24.723C94.7177 24.2031 94.3782 23.8097 93.9492 23.5426C93.5231 23.2756 93.0458 23.142 92.5174 23.142C91.989 23.142 91.5103 23.2756 91.0813 23.5426C90.6552 23.8097 90.3157 24.2031 90.0629 24.723C89.8129 25.2429 89.6879 25.8807 89.6879 26.6364C89.6879 27.392 89.8129 28.0298 90.0629 28.5497C90.3157 29.0696 90.6552 29.4631 91.0813 29.7301C91.5103 29.9972 91.989 30.1307 92.5174 30.1307C93.0458 30.1307 93.5231 29.9972 93.9492 29.7301C94.3782 29.4631 94.7177 29.0696 94.9677 28.5497C95.2205 28.0298 95.3469 27.392 95.3469 26.6364ZM102.919 24.4545C102.868 24.0227 102.661 23.6875 102.297 23.4489C101.934 23.2102 101.488 23.0909 100.959 23.0909C100.573 23.0909 100.235 23.1534 99.945 23.2784C99.658 23.4034 99.4336 23.5753 99.2717 23.794C99.1126 24.0128 99.033 24.2614 99.033 24.5398C99.033 24.7727 99.0884 24.973 99.1992 25.1406C99.3129 25.3054 99.4577 25.4432 99.6339 25.554C99.81 25.6619 99.9947 25.7514 100.188 25.8224C100.381 25.8906 100.559 25.946 100.721 25.9886L101.607 26.2273C101.834 26.2869 102.087 26.3693 102.365 26.4744C102.647 26.5795 102.915 26.723 103.171 26.9048C103.429 27.0838 103.642 27.3139 103.81 27.5952C103.978 27.8764 104.061 28.2216 104.061 28.6307C104.061 29.1023 103.938 29.5284 103.691 29.9091C103.446 30.2898 103.088 30.5923 102.617 30.8168C102.148 31.0412 101.578 31.1534 100.908 31.1534C100.283 31.1534 99.7418 31.0526 99.2844 30.8509C98.8299 30.6491 98.4719 30.3679 98.2106 30.0071C97.9521 29.6463 97.8058 29.2273 97.7717 28.75H98.8626C98.891 29.0795 99.0018 29.3523 99.195 29.5682C99.391 29.7812 99.6381 29.9403 99.9364 30.0455C100.238 30.1477 100.561 30.1989 100.908 30.1989C101.311 30.1989 101.674 30.1335 101.995 30.0028C102.316 29.8693 102.57 29.6847 102.757 29.4489C102.945 29.2102 103.039 28.9318 103.039 28.6136C103.039 28.3239 102.958 28.0881 102.796 27.9062C102.634 27.7244 102.421 27.5767 102.157 27.4631C101.892 27.3494 101.607 27.25 101.3 27.1648L100.226 26.858C99.5444 26.6619 99.0046 26.3821 98.6069 26.0185C98.2092 25.6548 98.0103 25.179 98.0103 24.5909C98.0103 24.1023 98.1424 23.6761 98.4066 23.3125C98.6737 22.946 99.0316 22.6619 99.4805 22.4602C99.9322 22.2557 100.436 22.1534 100.993 22.1534C101.556 22.1534 102.056 22.2543 102.493 22.456C102.931 22.6548 103.277 22.9276 103.533 23.2741C103.792 23.6207 103.928 24.0142 103.942 24.4545H102.919Z" fill="white"/>
<path d="M194.7 24.8889H204.9C206.253 24.8889 207.55 25.2167 208.506 25.8001C209.463 26.3836 210 27.1749 210 28C210 28.8251 209.463 29.6164 208.506 30.1999C207.55 30.7833 206.253 31.1111 204.9 31.1111H194.7L184.5 42H176.85L181.95 31.1111H171.75L166.65 34.2222H159L164.1 28L159 21.7778H166.65L171.75 24.8889H181.95L176.85 14H184.5L194.7 24.8889Z" stroke="white" stroke-width="2" stroke-linecap="round" stroke-linejoin="round"/>
</svg>
