<svg width="117" height="38" viewBox="0 0 117 38" fill="none" xmlns="http://www.w3.org/2000/svg">
<path fill-rule="evenodd" clip-rule="evenodd" d="M0 36.6667C0 36.4899 0.324388 36.3203 0.901803 36.1953C1.47922 36.0702 2.26236 36 3.07895 36H113.921C114.738 36 115.521 36.0702 116.098 36.1953C116.676 36.3203 117 36.4899 117 36.6667C117 36.8435 116.676 37.013 116.098 37.1381C115.521 37.2631 114.738 37.3333 113.921 37.3333H3.07895C2.26236 37.3333 1.47922 37.2631 0.901803 37.1381C0.324388 37.013 0 36.8435 0 36.6667Z" fill="white"/>
<rect width="117" height="34" rx="6" fill="black"/>
<path d="M47.9034 21V20.233L50.7841 17.0795C51.1222 16.7102 51.4006 16.3892 51.6193 16.1165C51.8381 15.8409 52 15.5824 52.1051 15.3409C52.2131 15.0966 52.267 14.8409 52.267 14.5739C52.267 14.267 52.1932 14.0014 52.0455 13.777C51.9006 13.5526 51.7017 13.3793 51.4489 13.2571C51.196 13.1349 50.9119 13.0739 50.5966 13.0739C50.2614 13.0739 49.9688 13.1435 49.7188 13.2827C49.4716 13.419 49.2798 13.6108 49.1435 13.858C49.0099 14.1051 48.9432 14.3949 48.9432 14.7273H47.9375C47.9375 14.2159 48.0554 13.767 48.2912 13.3807C48.527 12.9943 48.848 12.6932 49.2543 12.4773C49.6634 12.2614 50.1222 12.1534 50.6307 12.1534C51.142 12.1534 51.5952 12.2614 51.9901 12.4773C52.3849 12.6932 52.6946 12.9844 52.919 13.3509C53.1435 13.7173 53.2557 14.125 53.2557 14.5739C53.2557 14.8949 53.1974 15.2088 53.081 15.5156C52.9673 15.8196 52.7685 16.1591 52.4844 16.5341C52.2031 16.9062 51.8125 17.3608 51.3125 17.8977L49.3523 19.9943V20.0625H53.4091V21H47.9034ZM58.0156 21.1193C57.3736 21.1193 56.8267 20.9446 56.375 20.5952C55.9233 20.2429 55.5781 19.733 55.3395 19.0653C55.1009 18.3949 54.9815 17.5852 54.9815 16.6364C54.9815 15.6932 55.1009 14.8878 55.3395 14.2202C55.581 13.5497 55.9276 13.0384 56.3793 12.6861C56.8338 12.331 57.3793 12.1534 58.0156 12.1534C58.652 12.1534 59.196 12.331 59.6477 12.6861C60.1023 13.0384 60.4489 13.5497 60.6875 14.2202C60.929 14.8878 61.0497 15.6932 61.0497 16.6364C61.0497 17.5852 60.9304 18.3949 60.6918 19.0653C60.4531 19.733 60.108 20.2429 59.6562 20.5952C59.2045 20.9446 58.6577 21.1193 58.0156 21.1193ZM58.0156 20.1818C58.652 20.1818 59.1463 19.875 59.4986 19.2614C59.8509 18.6477 60.027 17.7727 60.027 16.6364C60.027 15.8807 59.946 15.2372 59.7841 14.706C59.625 14.1747 59.3949 13.7699 59.0938 13.4915C58.7955 13.2131 58.4361 13.0739 58.0156 13.0739C57.3849 13.0739 56.892 13.3849 56.5369 14.0071C56.1818 14.6264 56.0043 15.5028 56.0043 16.6364C56.0043 17.392 56.0838 18.0341 56.2429 18.5625C56.402 19.0909 56.6307 19.4929 56.929 19.7685C57.2301 20.044 57.5923 20.1818 58.0156 20.1818ZM65.5156 21.1193C64.8736 21.1193 64.3267 20.9446 63.875 20.5952C63.4233 20.2429 63.0781 19.733 62.8395 19.0653C62.6009 18.3949 62.4815 17.5852 62.4815 16.6364C62.4815 15.6932 62.6009 14.8878 62.8395 14.2202C63.081 13.5497 63.4276 13.0384 63.8793 12.6861C64.3338 12.331 64.8793 12.1534 65.5156 12.1534C66.152 12.1534 66.696 12.331 67.1477 12.6861C67.6023 13.0384 67.9489 13.5497 68.1875 14.2202C68.429 14.8878 68.5497 15.6932 68.5497 16.6364C68.5497 17.5852 68.4304 18.3949 68.1918 19.0653C67.9531 19.733 67.608 20.2429 67.1562 20.5952C66.7045 20.9446 66.1577 21.1193 65.5156 21.1193ZM65.5156 20.1818C66.152 20.1818 66.6463 19.875 66.9986 19.2614C67.3509 18.6477 67.527 17.7727 67.527 16.6364C67.527 15.8807 67.446 15.2372 67.2841 14.706C67.125 14.1747 66.8949 13.7699 66.5938 13.4915C66.2955 13.2131 65.9361 13.0739 65.5156 13.0739C64.8849 13.0739 64.392 13.3849 64.0369 14.0071C63.6818 14.6264 63.5043 15.5028 63.5043 16.6364C63.5043 17.392 63.5838 18.0341 63.7429 18.5625C63.902 19.0909 64.1307 19.4929 64.429 19.7685C64.7301 20.044 65.0923 20.1818 65.5156 20.1818ZM73.1179 21.1193C72.5554 21.1193 72.054 21.0227 71.6136 20.8295C71.1761 20.6364 70.8281 20.3679 70.5696 20.0241C70.3139 19.6776 70.1747 19.2756 70.152 18.8182H71.2259C71.2486 19.0994 71.3452 19.3423 71.5156 19.5469C71.6861 19.7486 71.9091 19.9048 72.1847 20.0156C72.4602 20.1264 72.7656 20.1818 73.1009 20.1818C73.4759 20.1818 73.8082 20.1165 74.098 19.9858C74.3878 19.8551 74.6151 19.6733 74.7798 19.4403C74.9446 19.2074 75.027 18.9375 75.027 18.6307C75.027 18.3097 74.9474 18.027 74.7884 17.7827C74.6293 17.5355 74.3963 17.3423 74.0895 17.2031C73.7827 17.0639 73.4077 16.9943 72.9645 16.9943H72.2656V16.0568H72.9645C73.3111 16.0568 73.6151 15.9943 73.8764 15.8693C74.1406 15.7443 74.3466 15.5682 74.4943 15.3409C74.6449 15.1136 74.7202 14.8466 74.7202 14.5398C74.7202 14.2443 74.6548 13.9872 74.5241 13.7685C74.3935 13.5497 74.2088 13.3793 73.9702 13.2571C73.7344 13.1349 73.456 13.0739 73.1349 13.0739C72.8338 13.0739 72.5497 13.1293 72.2827 13.2401C72.0185 13.348 71.8026 13.5057 71.6349 13.7131C71.4673 13.9176 71.3764 14.1648 71.3622 14.4545H70.3395C70.3565 13.9972 70.4943 13.5966 70.7528 13.2528C71.0114 12.9062 71.3494 12.6364 71.767 12.4432C72.1875 12.25 72.6491 12.1534 73.152 12.1534C73.6918 12.1534 74.1548 12.2628 74.5412 12.4815C74.9276 12.6974 75.2244 12.983 75.4318 13.3381C75.6392 13.6932 75.7429 14.0767 75.7429 14.4886C75.7429 14.9801 75.6136 15.3991 75.3551 15.7457C75.0994 16.0923 74.7514 16.3324 74.3111 16.4659V16.5341C74.8622 16.625 75.2926 16.8594 75.6023 17.2372C75.9119 17.6122 76.0668 18.0767 76.0668 18.6307C76.0668 19.1051 75.9375 19.5312 75.679 19.9091C75.4233 20.2841 75.0739 20.5795 74.6307 20.7955C74.1875 21.0114 73.6832 21.1193 73.1179 21.1193Z" fill="white"/>
</svg>
