<svg width="260" height="59" viewBox="0 0 260 59" fill="none" xmlns="http://www.w3.org/2000/svg">
<rect width="260" height="57" rx="17" fill="black"/>
<path d="M45.4148 33H44.3068L47.5114 24.2727H48.6023L51.8068 33H50.6989L48.0909 25.6534H48.0227L45.4148 33ZM45.8239 29.5909H50.2898V30.5284H45.8239V29.5909ZM51.6694 25.2102V24.2727H58.2148V25.2102H55.4705V33H54.4137V25.2102H51.6694ZM59.8459 33V24.2727H62.7947C63.4766 24.2727 64.0362 24.3892 64.4737 24.6222C64.9112 24.8523 65.2351 25.169 65.4453 25.5724C65.6555 25.9759 65.7607 26.4347 65.7607 26.9489C65.7607 27.4631 65.6555 27.919 65.4453 28.3168C65.2351 28.7145 64.9126 29.027 64.478 29.2543C64.0433 29.4787 63.4879 29.5909 62.8118 29.5909H60.4254V28.6364H62.7777C63.2436 28.6364 63.6186 28.5682 63.9027 28.4318C64.1896 28.2955 64.397 28.1023 64.5249 27.8523C64.6555 27.5994 64.7209 27.2983 64.7209 26.9489C64.7209 26.5994 64.6555 26.294 64.5249 26.0327C64.3942 25.7713 64.1854 25.5696 63.8984 25.4276C63.6115 25.2827 63.2322 25.2102 62.7607 25.2102H60.9027V33H59.8459ZM63.9538 29.0795L66.1016 33H64.8743L62.7607 29.0795H63.9538ZM68.5785 24.2727V33H67.5217V24.2727H68.5785ZM70.6974 33V24.2727H73.7486C74.3565 24.2727 74.858 24.3778 75.2528 24.5881C75.6477 24.7955 75.9418 25.0753 76.1349 25.4276C76.3281 25.777 76.4247 26.1648 76.4247 26.5909C76.4247 26.9659 76.358 27.2756 76.2244 27.5199C76.0938 27.7642 75.9205 27.9574 75.7045 28.0994C75.4915 28.2415 75.2599 28.3466 75.0099 28.4148V28.5C75.277 28.517 75.5455 28.6108 75.8153 28.7812C76.0852 28.9517 76.3111 29.196 76.4929 29.5142C76.6747 29.8324 76.7656 30.2216 76.7656 30.6818C76.7656 31.1193 76.6662 31.5128 76.4673 31.8622C76.2685 32.2116 75.9545 32.4886 75.5256 32.6932C75.0966 32.8977 74.5384 33 73.8509 33H70.6974ZM71.7543 32.0625H73.8509C74.5412 32.0625 75.0313 31.929 75.321 31.6619C75.6136 31.392 75.7599 31.0653 75.7599 30.6818C75.7599 30.3864 75.6847 30.1136 75.5341 29.8636C75.3835 29.6108 75.169 29.4091 74.8906 29.2585C74.6122 29.1051 74.2827 29.0284 73.902 29.0284H71.7543V32.0625ZM71.7543 28.108H73.7145C74.0327 28.108 74.3196 28.0455 74.5753 27.9205C74.8338 27.7955 75.0384 27.6193 75.1889 27.392C75.3423 27.1648 75.419 26.8977 75.419 26.5909C75.419 26.2074 75.2855 25.8821 75.0185 25.6151C74.7514 25.3452 74.3281 25.2102 73.7486 25.2102H71.7543V28.108ZM84.2294 24.2727H85.2862V30.0511C85.2862 30.6477 85.1456 31.1804 84.8643 31.6491C84.5859 32.1151 84.1925 32.483 83.6839 32.7528C83.1754 33.0199 82.5788 33.1534 81.8942 33.1534C81.2095 33.1534 80.6129 33.0199 80.1044 32.7528C79.5959 32.483 79.201 32.1151 78.9197 31.6491C78.6413 31.1804 78.5021 30.6477 78.5021 30.0511V24.2727H79.5589V29.9659C79.5589 30.392 79.6527 30.7713 79.8402 31.1037C80.0277 31.4332 80.2947 31.6932 80.6413 31.8835C80.9908 32.071 81.4084 32.1648 81.8942 32.1648C82.38 32.1648 82.7976 32.071 83.147 31.8835C83.4964 31.6932 83.7635 31.4332 83.9482 31.1037C84.1357 30.7713 84.2294 30.392 84.2294 29.9659V24.2727ZM86.9194 25.2102V24.2727H93.4648V25.2102H90.7205V33H89.6637V25.2102H86.9194ZM95.0959 33V24.2727H100.363V25.2102H96.1527V28.1591H100.09V29.0966H96.1527V32.0625H100.431V33H95.0959ZM107.04 26.4545C106.989 26.0227 106.782 25.6875 106.418 25.4489C106.055 25.2102 105.609 25.0909 105.08 25.0909C104.694 25.0909 104.356 25.1534 104.066 25.2784C103.779 25.4034 103.555 25.5753 103.393 25.794C103.234 26.0128 103.154 26.2614 103.154 26.5398C103.154 26.7727 103.21 26.973 103.32 27.1406C103.434 27.3054 103.579 27.4432 103.755 27.554C103.931 27.6619 104.116 27.7514 104.309 27.8224C104.502 27.8906 104.68 27.946 104.842 27.9886L105.728 28.2273C105.955 28.2869 106.208 28.3693 106.487 28.4744C106.768 28.5795 107.036 28.723 107.292 28.9048C107.55 29.0838 107.763 29.3139 107.931 29.5952C108.099 29.8764 108.183 30.2216 108.183 30.6307C108.183 31.1023 108.059 31.5284 107.812 31.9091C107.567 32.2898 107.21 32.5923 106.738 32.8168C106.269 33.0412 105.7 33.1534 105.029 33.1534C104.404 33.1534 103.863 33.0526 103.406 32.8509C102.951 32.6491 102.593 32.3679 102.332 32.0071C102.073 31.6463 101.927 31.2273 101.893 30.75H102.984C103.012 31.0795 103.123 31.3523 103.316 31.5682C103.512 31.7812 103.759 31.9403 104.058 32.0455C104.359 32.1477 104.683 32.1989 105.029 32.1989C105.433 32.1989 105.795 32.1335 106.116 32.0028C106.437 31.8693 106.691 31.6847 106.879 31.4489C107.066 31.2102 107.16 30.9318 107.16 30.6136C107.16 30.3239 107.079 30.0881 106.917 29.9062C106.755 29.7244 106.542 29.5767 106.278 29.4631C106.013 29.3494 105.728 29.25 105.421 29.1648L104.347 28.858C103.665 28.6619 103.126 28.3821 102.728 28.0185C102.33 27.6548 102.131 27.179 102.131 26.5909C102.131 26.1023 102.263 25.6761 102.528 25.3125C102.795 24.946 103.153 24.6619 103.602 24.4602C104.053 24.2557 104.558 24.1534 105.114 24.1534C105.677 24.1534 106.177 24.2543 106.614 24.456C107.052 24.6548 107.398 24.9276 107.654 25.2741C107.913 25.6207 108.049 26.0142 108.063 26.4545H107.04Z" fill="white"/>
<path d="M193.7 25.8889H203.9C205.253 25.8889 206.55 26.2167 207.506 26.8001C208.463 27.3836 209 28.1749 209 29C209 29.8251 208.463 30.6164 207.506 31.1999C206.55 31.7833 205.253 32.1111 203.9 32.1111H193.7L183.5 43H175.85L180.95 32.1111H170.75L165.65 35.2222H158L163.1 29L158 22.7778H165.65L170.75 25.8889H180.95L175.85 15H183.5L193.7 25.8889Z" stroke="white" stroke-width="2" stroke-linecap="round" stroke-linejoin="round"/>
</svg>
