<svg width="117" height="39" viewBox="0 0 117 39" fill="none" xmlns="http://www.w3.org/2000/svg">
<path opacity="0.2" fill-rule="evenodd" clip-rule="evenodd" d="M6.15796 37C6.15796 36.4696 7.13112 35.9609 8.86337 35.5858C10.5956 35.2107 12.945 35 15.3948 35H107.763C110.213 35 112.562 35.2107 114.295 35.5858C116.027 35.9609 117 36.4696 117 37C117 37.5304 116.027 38.0391 114.295 38.4142C112.562 38.7893 110.213 39 107.763 39H15.3948C12.945 39 10.5956 38.7893 8.86337 38.4142C7.13112 38.0391 6.15796 37.5304 6.15796 37Z" fill="white"/>
<rect width="117" height="34" rx="6" fill="black"/>
<path d="M39.4148 20H38.3068L41.5114 11.2727H42.6023L45.8068 20H44.6989L42.0909 12.6534H42.0227L39.4148 20ZM39.8239 16.5909H44.2898V17.5284H39.8239V16.5909ZM47.1001 20V13.4545H48.1058V20H47.1001ZM47.6115 12.3636C47.4155 12.3636 47.2464 12.2969 47.1044 12.1634C46.9652 12.0298 46.8956 11.8693 46.8956 11.6818C46.8956 11.4943 46.9652 11.3338 47.1044 11.2003C47.2464 11.0668 47.4155 11 47.6115 11C47.8075 11 47.9751 11.0668 48.1143 11.2003C48.2564 11.3338 48.3274 11.4943 48.3274 11.6818C48.3274 11.8693 48.2564 12.0298 48.1143 12.1634C47.9751 12.2969 47.8075 12.3636 47.6115 12.3636ZM49.9478 20V13.4545H50.9194V14.4432H50.9876C51.1069 14.1193 51.3228 13.8565 51.6353 13.6548C51.9478 13.4531 52.3001 13.3523 52.6921 13.3523C52.766 13.3523 52.8583 13.3537 52.9691 13.3565C53.0799 13.3594 53.1637 13.3636 53.2205 13.3693V14.392C53.1864 14.3835 53.1083 14.3707 52.9862 14.3537C52.8668 14.3338 52.7404 14.3239 52.6069 14.3239C52.2887 14.3239 52.0046 14.3906 51.7546 14.5241C51.5075 14.6548 51.3114 14.8366 51.1665 15.0696C51.0245 15.2997 50.9535 15.5625 50.9535 15.858V20H49.9478ZM54.549 20V11.2727H55.5547V14.4943H55.6399C55.7138 14.3807 55.8161 14.2358 55.9467 14.0597C56.0803 13.8807 56.2706 13.7216 56.5178 13.5824C56.7678 13.4403 57.1058 13.3693 57.532 13.3693C58.0831 13.3693 58.5689 13.5071 58.9893 13.7827C59.4098 14.0582 59.7379 14.4489 59.9737 14.9545C60.2095 15.4602 60.3274 16.0568 60.3274 16.7443C60.3274 17.4375 60.2095 18.0384 59.9737 18.5469C59.7379 19.0526 59.4112 19.4446 58.9936 19.723C58.576 19.9986 58.0945 20.1364 57.549 20.1364C57.1286 20.1364 56.7919 20.0668 56.5391 19.9276C56.2862 19.7855 56.0916 19.625 55.9553 19.446C55.8189 19.2642 55.7138 19.1136 55.6399 18.9943H55.5206V20H54.549ZM55.5376 16.7273C55.5376 17.2216 55.6101 17.6577 55.755 18.0355C55.8999 18.4105 56.1115 18.7045 56.3899 18.9176C56.6683 19.1278 57.0092 19.233 57.4126 19.233C57.8331 19.233 58.1839 19.1222 58.4652 18.9006C58.7493 18.6761 58.9624 18.375 59.1044 17.9972C59.2493 17.6165 59.3217 17.1932 59.3217 16.7273C59.3217 16.267 59.2507 15.8523 59.1087 15.483C58.9695 15.1108 58.7578 14.8168 58.4737 14.6009C58.1925 14.3821 57.8388 14.2727 57.4126 14.2727C57.0036 14.2727 56.6598 14.3764 56.3814 14.5838C56.103 14.7884 55.8928 15.0753 55.7507 15.4446C55.6087 15.8111 55.5376 16.2386 55.5376 16.7273ZM65.9908 17.3239V13.4545H66.9964V20H65.9908V18.892H65.9226C65.7692 19.2244 65.5305 19.5071 65.2067 19.7401C64.8828 19.9702 64.4737 20.0852 63.9794 20.0852C63.5703 20.0852 63.2067 19.9957 62.8885 19.8168C62.5703 19.6349 62.3203 19.3622 62.1385 18.9986C61.9567 18.6321 61.8658 18.1705 61.8658 17.6136V13.4545H62.8714V17.5455C62.8714 18.0227 63.005 18.4034 63.272 18.6875C63.5419 18.9716 63.8857 19.1136 64.3033 19.1136C64.5533 19.1136 64.8075 19.0497 65.0661 18.9219C65.3274 18.794 65.5462 18.598 65.7223 18.3338C65.9013 18.0696 65.9908 17.733 65.9908 17.3239ZM73.4748 14.9205L72.5714 15.1761C72.5146 15.0256 72.4308 14.8793 72.32 14.7372C72.212 14.5923 72.0643 14.473 71.8768 14.3793C71.6893 14.2855 71.4492 14.2386 71.1566 14.2386C70.756 14.2386 70.4222 14.331 70.1552 14.5156C69.891 14.6974 69.7589 14.929 69.7589 15.2102C69.7589 15.4602 69.8498 15.6577 70.0316 15.8026C70.2134 15.9474 70.4975 16.0682 70.8839 16.1648L71.8555 16.4034C72.4407 16.5455 72.8768 16.7628 73.1637 17.0554C73.4506 17.3452 73.5941 17.7187 73.5941 18.1761C73.5941 18.5511 73.4862 18.8864 73.2702 19.1818C73.0572 19.4773 72.7589 19.7102 72.3754 19.8807C71.9918 20.0511 71.5458 20.1364 71.0373 20.1364C70.3697 20.1364 69.8171 19.9915 69.3796 19.7017C68.9421 19.4119 68.6651 18.9886 68.5487 18.4318L69.5032 18.1932C69.5941 18.5455 69.766 18.8097 70.0188 18.9858C70.2745 19.1619 70.6083 19.25 71.0202 19.25C71.489 19.25 71.8612 19.1506 72.1367 18.9517C72.4151 18.75 72.5543 18.5085 72.5543 18.2273C72.5543 18 72.4748 17.8097 72.3157 17.6562C72.1566 17.5 71.9123 17.3835 71.5827 17.3068L70.4918 17.0511C69.8924 16.9091 69.4521 16.6889 69.1708 16.3906C68.8924 16.0895 68.7532 15.7131 68.7532 15.2614C68.7532 14.892 68.8569 14.5653 69.0643 14.2812C69.2745 13.9972 69.56 13.7741 69.9208 13.6122C70.2844 13.4503 70.6964 13.3693 71.1566 13.3693C71.8043 13.3693 72.3129 13.5114 72.6822 13.7955C73.0543 14.0795 73.3185 14.4545 73.4748 14.9205Z" fill="white"/>
</svg>
