<svg width="125" height="47" viewBox="0 0 125 47" fill="none" xmlns="http://www.w3.org/2000/svg">
<g filter="url(#filter0_d_36_18)">
<path opacity="0.2" fill-rule="evenodd" clip-rule="evenodd" d="M10.158 37C10.158 36.4696 11.1311 35.9609 12.8634 35.5858C14.5956 35.2107 16.945 35 19.3948 35H111.763C114.213 35 116.562 35.2107 118.295 35.5858C120.027 35.9609 121 36.4696 121 37C121 37.5304 120.027 38.0391 118.295 38.4142C116.562 38.7893 114.213 39 111.763 39H19.3948C16.945 39 14.5956 38.7893 12.8634 38.4142C11.1311 38.0391 10.158 37.5304 10.158 37Z" fill="white"/>
<rect x="4" width="117" height="34" rx="6" fill="black"/>
<path d="M43.0568 21V12.2727H44.0625V15.4943H44.1477C44.2216 15.3807 44.3239 15.2358 44.4545 15.0597C44.5881 14.8807 44.7784 14.7216 45.0256 14.5824C45.2756 14.4403 45.6136 14.3693 46.0398 14.3693C46.5909 14.3693 47.0767 14.5071 47.4972 14.7827C47.9176 15.0582 48.2457 15.4489 48.4815 15.9545C48.7173 16.4602 48.8352 17.0568 48.8352 17.7443C48.8352 18.4375 48.7173 19.0384 48.4815 19.5469C48.2457 20.0526 47.919 20.4446 47.5014 20.723C47.0838 20.9986 46.6023 21.1364 46.0568 21.1364C45.6364 21.1364 45.2997 21.0668 45.0469 20.9276C44.794 20.7855 44.5994 20.625 44.4631 20.446C44.3267 20.2642 44.2216 20.1136 44.1477 19.9943H44.0284V21H43.0568ZM44.0455 17.7273C44.0455 18.2216 44.1179 18.6577 44.2628 19.0355C44.4077 19.4105 44.6193 19.7045 44.8977 19.9176C45.1761 20.1278 45.517 20.233 45.9205 20.233C46.3409 20.233 46.6918 20.1222 46.973 19.9006C47.2571 19.6761 47.4702 19.375 47.6122 18.9972C47.7571 18.6165 47.8295 18.1932 47.8295 17.7273C47.8295 17.267 47.7585 16.8523 47.6165 16.483C47.4773 16.1108 47.2656 15.8168 46.9815 15.6009C46.7003 15.3821 46.3466 15.2727 45.9205 15.2727C45.5114 15.2727 45.1676 15.3764 44.8892 15.5838C44.6108 15.7884 44.4006 16.0753 44.2585 16.4446C44.1165 16.8111 44.0455 17.2386 44.0455 17.7273ZM51.3793 12.2727V21H50.3736V12.2727H51.3793ZM55.1474 21.1534C54.7326 21.1534 54.3562 21.0753 54.0181 20.919C53.68 20.7599 53.4116 20.5312 53.2127 20.233C53.0138 19.9318 52.9144 19.5682 52.9144 19.142C52.9144 18.767 52.9883 18.4631 53.136 18.2301C53.2837 17.9943 53.4812 17.8097 53.7283 17.6761C53.9755 17.5426 54.2482 17.4432 54.5465 17.3778C54.8477 17.3097 55.1502 17.2557 55.4542 17.2159C55.8519 17.1648 56.1744 17.1264 56.4215 17.1009C56.6715 17.0724 56.8533 17.0256 56.967 16.9602C57.0835 16.8949 57.1417 16.7812 57.1417 16.6193V16.5852C57.1417 16.1648 57.0266 15.8381 56.7965 15.6051C56.5692 15.3722 56.2241 15.2557 55.761 15.2557C55.2809 15.2557 54.9045 15.3608 54.6317 15.571C54.359 15.7812 54.1673 16.0057 54.0565 16.2443L53.1019 15.9034C53.2724 15.5057 53.4996 15.196 53.7837 14.9744C54.0707 14.75 54.3832 14.5937 54.7212 14.5057C55.0621 14.4148 55.3974 14.3693 55.7269 14.3693C55.9371 14.3693 56.1786 14.3949 56.4513 14.446C56.7269 14.4943 56.9925 14.5952 57.2482 14.7486C57.5067 14.902 57.7212 15.1335 57.8917 15.4432C58.0621 15.7528 58.1474 16.1676 58.1474 16.6875V21H57.1417V20.1136H57.0906C57.0224 20.2557 56.9087 20.4077 56.7496 20.5696C56.5906 20.7315 56.3789 20.8693 56.1147 20.983C55.8505 21.0966 55.5281 21.1534 55.1474 21.1534ZM55.3008 20.25C55.6985 20.25 56.0337 20.1719 56.3065 20.0156C56.582 19.8594 56.7894 19.6577 56.9286 19.4105C57.0707 19.1634 57.1417 18.9034 57.1417 18.6307V17.7102C57.0991 17.7614 57.0053 17.8082 56.8604 17.8509C56.7184 17.8906 56.5536 17.9261 56.3661 17.9574C56.1815 17.9858 56.0011 18.0114 55.8249 18.0341C55.6516 18.054 55.511 18.071 55.4031 18.0852C55.1417 18.1193 54.8974 18.1747 54.6701 18.2514C54.4457 18.3253 54.2638 18.4375 54.1246 18.5881C53.9883 18.7358 53.9201 18.9375 53.9201 19.1932C53.9201 19.5426 54.0494 19.8068 54.3079 19.9858C54.5692 20.1619 54.9002 20.25 55.3008 20.25ZM60.9886 17.0625V21H59.983V14.4545H60.9545V15.4773H61.0398C61.1932 15.1449 61.4261 14.8778 61.7386 14.6761C62.0511 14.4716 62.4545 14.3693 62.9489 14.3693C63.392 14.3693 63.7798 14.4602 64.1122 14.642C64.4446 14.821 64.7031 15.0938 64.8878 15.4602C65.0724 15.8239 65.1648 16.2841 65.1648 16.8409V21H64.1591V16.9091C64.1591 16.3949 64.0256 15.9943 63.7585 15.7074C63.4915 15.4176 63.125 15.2727 62.6591 15.2727C62.3381 15.2727 62.0511 15.3423 61.7983 15.4815C61.5483 15.6207 61.3509 15.8239 61.206 16.0909C61.0611 16.358 60.9886 16.6818 60.9886 17.0625ZM69.6616 21.1364C69.0479 21.1364 68.5195 20.9915 68.0763 20.7017C67.6332 20.4119 67.2923 20.0128 67.0536 19.5043C66.815 18.9957 66.6957 18.4148 66.6957 17.7614C66.6957 17.0966 66.8178 16.5099 67.0621 16.0014C67.3093 15.4901 67.6531 15.0909 68.0934 14.804C68.5366 14.5142 69.0536 14.3693 69.6445 14.3693C70.1048 14.3693 70.5195 14.4545 70.8888 14.625C71.2582 14.7955 71.5607 15.0341 71.7965 15.3409C72.0323 15.6477 72.1786 16.0057 72.2354 16.4148H71.2298C71.1531 16.1165 70.9826 15.8523 70.7184 15.6222C70.457 15.3892 70.1048 15.2727 69.6616 15.2727C69.2695 15.2727 68.9258 15.375 68.6303 15.5795C68.3377 15.7812 68.109 16.0668 67.9442 16.4361C67.7823 16.8026 67.7013 17.233 67.7013 17.7273C67.7013 18.233 67.7809 18.6733 67.94 19.0483C68.1019 19.4233 68.3292 19.7145 68.6218 19.9219C68.9173 20.1293 69.2638 20.233 69.6616 20.233C69.9229 20.233 70.1602 20.1875 70.3732 20.0966C70.5863 20.0057 70.7667 19.875 70.9144 19.7045C71.0621 19.5341 71.1673 19.3295 71.2298 19.0909H72.2354C72.1786 19.4773 72.038 19.8253 71.8136 20.1349C71.592 20.4418 71.2979 20.6861 70.9315 20.8679C70.5678 21.0469 70.1445 21.1364 69.6616 21.1364ZM76.3647 21.1364C75.7738 21.1364 75.2553 20.9957 74.8093 20.7145C74.3661 20.4332 74.0195 20.0398 73.7695 19.5341C73.5224 19.0284 73.3988 18.4375 73.3988 17.7614C73.3988 17.0795 73.5224 16.4844 73.7695 15.9759C74.0195 15.4673 74.3661 15.0724 74.8093 14.7912C75.2553 14.5099 75.7738 14.3693 76.3647 14.3693C76.9556 14.3693 77.4727 14.5099 77.9158 14.7912C78.3619 15.0724 78.7085 15.4673 78.9556 15.9759C79.2056 16.4844 79.3306 17.0795 79.3306 17.7614C79.3306 18.4375 79.2056 19.0284 78.9556 19.5341C78.7085 20.0398 78.3619 20.4332 77.9158 20.7145C77.4727 20.9957 76.9556 21.1364 76.3647 21.1364ZM76.3647 20.233C76.8136 20.233 77.1829 20.1179 77.4727 19.8878C77.7624 19.6577 77.9769 19.3551 78.1161 18.9801C78.2553 18.6051 78.3249 18.1989 78.3249 17.7614C78.3249 17.3239 78.2553 16.9162 78.1161 16.5384C77.9769 16.1605 77.7624 15.8551 77.4727 15.6222C77.1829 15.3892 76.8136 15.2727 76.3647 15.2727C75.9158 15.2727 75.5465 15.3892 75.2567 15.6222C74.967 15.8551 74.7525 16.1605 74.6133 16.5384C74.4741 16.9162 74.4045 17.3239 74.4045 17.7614C74.4045 18.1989 74.4741 18.6051 74.6133 18.9801C74.7525 19.3551 74.967 19.6577 75.2567 19.8878C75.5465 20.1179 75.9158 20.233 76.3647 20.233Z" fill="white"/>
</g>
<defs>
<filter id="filter0_d_36_18" x="0" y="0" width="125" height="47" filterUnits="userSpaceOnUse" color-interpolation-filters="sRGB">
<feFlood flood-opacity="0" result="BackgroundImageFix"/>
<feColorMatrix in="SourceAlpha" type="matrix" values="0 0 0 0 0 0 0 0 0 0 0 0 0 0 0 0 0 0 127 0" result="hardAlpha"/>
<feOffset dy="4"/>
<feGaussianBlur stdDeviation="2"/>
<feComposite in2="hardAlpha" operator="out"/>
<feColorMatrix type="matrix" values="0 0 0 0 0 0 0 0 0 0 0 0 0 0 0 0 0 0 0.25 0"/>
<feBlend mode="normal" in2="BackgroundImageFix" result="effect1_dropShadow_36_18"/>
<feBlend mode="normal" in="SourceGraphic" in2="effect1_dropShadow_36_18" result="shape"/>
</filter>
</defs>
</svg>
