<svg width="117" height="38" viewBox="0 0 117 38" fill="none" xmlns="http://www.w3.org/2000/svg">
<path fill-rule="evenodd" clip-rule="evenodd" d="M0 36.6667C0 36.4899 0.324388 36.3203 0.901803 36.1953C1.47922 36.0702 2.26236 36 3.07895 36H113.921C114.738 36 115.521 36.0702 116.098 36.1953C116.676 36.3203 117 36.4899 117 36.6667C117 36.8435 116.676 37.013 116.098 37.1381C115.521 37.2631 114.738 37.3333 113.921 37.3333H3.07895C2.26236 37.3333 1.47922 37.2631 0.901803 37.1381C0.324388 37.013 0 36.8435 0 36.6667Z" fill="white"/>
<rect width="117" height="34" rx="6" fill="black"/>
<path d="M45.4148 20H44.3068L47.5114 11.2727H48.6023L51.8068 20H50.6989L48.0909 12.6534H48.0227L45.4148 20ZM45.8239 16.5909H50.2898V17.5284H45.8239V16.5909ZM55.9616 20.1193C55.3991 20.1193 54.8977 20.0227 54.4574 19.8295C54.0199 19.6364 53.6719 19.3679 53.4134 19.0241C53.1577 18.6776 53.0185 18.2756 52.9957 17.8182H54.0696C54.0923 18.0994 54.1889 18.3423 54.3594 18.5469C54.5298 18.7486 54.7528 18.9048 55.0284 19.0156C55.304 19.1264 55.6094 19.1818 55.9446 19.1818C56.3196 19.1818 56.652 19.1165 56.9418 18.9858C57.2315 18.8551 57.4588 18.6733 57.6236 18.4403C57.7884 18.2074 57.8707 17.9375 57.8707 17.6307C57.8707 17.3097 57.7912 17.027 57.6321 16.7827C57.473 16.5355 57.2401 16.3423 56.9332 16.2031C56.6264 16.0639 56.2514 15.9943 55.8082 15.9943H55.1094V15.0568H55.8082C56.1548 15.0568 56.4588 14.9943 56.7202 14.8693C56.9844 14.7443 57.1903 14.5682 57.3381 14.3409C57.4886 14.1136 57.5639 13.8466 57.5639 13.5398C57.5639 13.2443 57.4986 12.9872 57.3679 12.7685C57.2372 12.5497 57.0526 12.3793 56.8139 12.2571C56.5781 12.1349 56.2997 12.0739 55.9787 12.0739C55.6776 12.0739 55.3935 12.1293 55.1264 12.2401C54.8622 12.348 54.6463 12.5057 54.4787 12.7131C54.3111 12.9176 54.2202 13.1648 54.206 13.4545H53.1832C53.2003 12.9972 53.3381 12.5966 53.5966 12.2528C53.8551 11.9062 54.1932 11.6364 54.6108 11.4432C55.0313 11.25 55.4929 11.1534 55.9957 11.1534C56.5355 11.1534 56.9986 11.2628 57.3849 11.4815C57.7713 11.6974 58.0682 11.983 58.2756 12.3381C58.483 12.6932 58.5866 13.0767 58.5866 13.4886C58.5866 13.9801 58.4574 14.3991 58.1989 14.7457C57.9432 15.0923 57.5952 15.3324 57.1548 15.4659V15.5341C57.706 15.625 58.1364 15.8594 58.446 16.2372C58.7557 16.6122 58.9105 17.0767 58.9105 17.6307C58.9105 18.1051 58.7813 18.5312 58.5227 18.9091C58.267 19.2841 57.9176 19.5795 57.4744 19.7955C57.0313 20.0114 56.527 20.1193 55.9616 20.1193ZM60.6534 20V19.233L63.5341 16.0795C63.8722 15.7102 64.1506 15.3892 64.3693 15.1165C64.5881 14.8409 64.75 14.5824 64.8551 14.3409C64.9631 14.0966 65.017 13.8409 65.017 13.5739C65.017 13.267 64.9432 13.0014 64.7955 12.777C64.6506 12.5526 64.4517 12.3793 64.1989 12.2571C63.946 12.1349 63.6619 12.0739 63.3466 12.0739C63.0114 12.0739 62.7188 12.1435 62.4688 12.2827C62.2216 12.419 62.0298 12.6108 61.8935 12.858C61.7599 13.1051 61.6932 13.3949 61.6932 13.7273H60.6875C60.6875 13.2159 60.8054 12.767 61.0412 12.3807C61.277 11.9943 61.598 11.6932 62.0043 11.4773C62.4134 11.2614 62.8722 11.1534 63.3807 11.1534C63.892 11.1534 64.3452 11.2614 64.7401 11.4773C65.1349 11.6932 65.4446 11.9844 65.669 12.3509C65.8935 12.7173 66.0057 13.125 66.0057 13.5739C66.0057 13.8949 65.9474 14.2088 65.831 14.5156C65.7173 14.8196 65.5185 15.1591 65.2344 15.5341C64.9531 15.9062 64.5625 16.3608 64.0625 16.8977L62.1023 18.9943V19.0625H66.1591V20H60.6534ZM70.7656 20.1193C70.1236 20.1193 69.5767 19.9446 69.125 19.5952C68.6733 19.2429 68.3281 18.733 68.0895 18.0653C67.8509 17.3949 67.7315 16.5852 67.7315 15.6364C67.7315 14.6932 67.8509 13.8878 68.0895 13.2202C68.331 12.5497 68.6776 12.0384 69.1293 11.6861C69.5838 11.331 70.1293 11.1534 70.7656 11.1534C71.402 11.1534 71.946 11.331 72.3977 11.6861C72.8523 12.0384 73.1989 12.5497 73.4375 13.2202C73.679 13.8878 73.7997 14.6932 73.7997 15.6364C73.7997 16.5852 73.6804 17.3949 73.4418 18.0653C73.2031 18.733 72.858 19.2429 72.4062 19.5952C71.9545 19.9446 71.4077 20.1193 70.7656 20.1193ZM70.7656 19.1818C71.402 19.1818 71.8963 18.875 72.2486 18.2614C72.6009 17.6477 72.777 16.7727 72.777 15.6364C72.777 14.8807 72.696 14.2372 72.5341 13.706C72.375 13.1747 72.1449 12.7699 71.8438 12.4915C71.5455 12.2131 71.1861 12.0739 70.7656 12.0739C70.1349 12.0739 69.642 12.3849 69.2869 13.0071C68.9318 13.6264 68.7543 14.5028 68.7543 15.6364C68.7543 16.392 68.8338 17.0341 68.9929 17.5625C69.152 18.0909 69.3807 18.4929 69.679 18.7685C69.9801 19.044 70.3423 19.1818 70.7656 19.1818Z" fill="#FFF8F8"/>
</svg>
