<svg width="204" height="4" viewBox="0 0 204 4" fill="none" xmlns="http://www.w3.org/2000/svg">
<path opacity="0.2" fill-rule="evenodd" clip-rule="evenodd" d="M10.7368 2C10.7368 1.46957 12.4336 0.960859 15.4539 0.585786C18.4743 0.210713 22.5707 0 26.8421 0H187.895C192.166 1.58081e-08 196.263 0.210713 199.283 0.585786C202.303 0.960859 204 1.46957 204 2C204 2.53043 202.303 3.03914 199.283 3.41421C196.263 3.78929 192.166 4 187.895 4H26.8421C22.5707 4 18.4743 3.78929 15.4539 3.41421C12.4336 3.03914 10.7368 2.53043 10.7368 2Z" fill="white"/>
<path fill-rule="evenodd" clip-rule="evenodd" d="M0 0.666667C0 0.489856 0.5656 0.320286 1.57237 0.195262C2.57915 0.0702374 3.94463 0 5.36842 0H198.632C200.055 0 201.421 0.0702374 202.428 0.195262C203.434 0.320286 204 0.489856 204 0.666667C204 0.843478 203.434 1.01305 202.428 1.13807C201.421 1.2631 200.055 1.33333 198.632 1.33333H5.36842C3.94463 1.33333 2.57915 1.2631 1.57237 1.13807C0.5656 1.01305 0 0.843478 0 0.666667Z" fill="white"/>
</svg>
