<svg width="53" height="53" viewBox="0 0 53 53" fill="none" xmlns="http://www.w3.org/2000/svg">
<path d="M53 26.5C53 41.1355 41.1355 53 26.5 53C11.8644 53 -1.53621e-05 41.1355 -1.53621e-05 26.5C-1.53621e-05 11.8645 11.8644 0 26.5 0C41.1355 0 53 11.8645 53 26.5Z" fill="black"/>
<path d="M21.5 17H18.5C17.6716 17 17 17.5756 17 18.2857V33.7143C17 34.4244 17.6716 35 18.5 35H21.5C22.3284 35 23 34.4244 23 33.7143V18.2857C23 17.5756 22.3284 17 21.5 17Z" stroke="white" stroke-linecap="round"/>
<path d="M33.5 17H30.5C29.6716 17 29 17.5756 29 18.2857V33.7143C29 34.4244 29.6716 35 30.5 35H33.5C34.3284 35 35 34.4244 35 33.7143V18.2857C35 17.5756 34.3284 17 33.5 17Z" stroke="white" stroke-linecap="round"/>
</svg>
