<svg width="208" height="47" viewBox="0 0 208 47" fill="none" xmlns="http://www.w3.org/2000/svg">
<rect width="169" height="47" rx="15" fill="black"/>
<g clip-path="url(#clip0_23_172)">
<path d="M11.6 23.5C11.5988 20.9456 12.6442 18.4623 14.5741 16.4355C16.504 14.4087 19.2105 12.9517 22.2734 12.2907C25.3364 11.6296 28.5845 11.8015 31.5138 12.7795C34.4431 13.7576 36.8898 15.4873 38.474 17.7H42.5024C41.1011 15.1135 38.7933 12.9127 35.862 11.3673C32.9307 9.82192 29.5033 8.9992 26 9C16.0586 9 8 15.4917 8 23.5C8 31.5084 16.0586 38 26 38C33.38 38 39.725 34.4214 42.5024 29.3H38.474C36.8898 31.5127 34.4431 33.2424 31.5138 34.2205C28.5845 35.1985 25.3364 35.3704 22.2734 34.7093C19.2105 34.0483 16.504 32.5913 14.5741 30.5645C12.6442 28.5377 11.5988 26.0544 11.6 23.5ZM40.2884 22.05H29.6V16.25L18.8 23.5L29.6 30.75V24.95H44V22.05H40.2884Z" fill="white"/>
</g>
<path d="M64.4205 21.6364C64.4205 22.5568 64.2543 23.3523 63.9219 24.0227C63.5895 24.6932 63.1335 25.2102 62.554 25.5739C61.9744 25.9375 61.3125 26.1193 60.5682 26.1193C59.8239 26.1193 59.1619 25.9375 58.5824 25.5739C58.0028 25.2102 57.5469 24.6932 57.2145 24.0227C56.8821 23.3523 56.7159 22.5568 56.7159 21.6364C56.7159 20.7159 56.8821 19.9205 57.2145 19.25C57.5469 18.5795 58.0028 18.0625 58.5824 17.6989C59.1619 17.3352 59.8239 17.1534 60.5682 17.1534C61.3125 17.1534 61.9744 17.3352 62.554 17.6989C63.1335 18.0625 63.5895 18.5795 63.9219 19.25C64.2543 19.9205 64.4205 20.7159 64.4205 21.6364ZM63.3977 21.6364C63.3977 20.8807 63.2713 20.2429 63.0185 19.723C62.7685 19.2031 62.429 18.8097 62 18.5426C61.5739 18.2756 61.0966 18.142 60.5682 18.142C60.0398 18.142 59.5611 18.2756 59.1321 18.5426C58.706 18.8097 58.3665 19.2031 58.1136 19.723C57.8636 20.2429 57.7386 20.8807 57.7386 21.6364C57.7386 22.392 57.8636 23.0298 58.1136 23.5497C58.3665 24.0696 58.706 24.4631 59.1321 24.7301C59.5611 24.9972 60.0398 25.1307 60.5682 25.1307C61.0966 25.1307 61.5739 24.9972 62 24.7301C62.429 24.4631 62.7685 24.0696 63.0185 23.5497C63.2713 23.0298 63.3977 22.392 63.3977 21.6364ZM66.1974 26V17.2727H69.2486C69.8565 17.2727 70.358 17.3778 70.7528 17.5881C71.1477 17.7955 71.4418 18.0753 71.6349 18.4276C71.8281 18.777 71.9247 19.1648 71.9247 19.5909C71.9247 19.9659 71.858 20.2756 71.7244 20.5199C71.5938 20.7642 71.4205 20.9574 71.2045 21.0994C70.9915 21.2415 70.7599 21.3466 70.5099 21.4148V21.5C70.777 21.517 71.0455 21.6108 71.3153 21.7812C71.5852 21.9517 71.8111 22.196 71.9929 22.5142C72.1747 22.8324 72.2656 23.2216 72.2656 23.6818C72.2656 24.1193 72.1662 24.5128 71.9673 24.8622C71.7685 25.2116 71.4545 25.4886 71.0256 25.6932C70.5966 25.8977 70.0384 26 69.3509 26H66.1974ZM67.2543 25.0625H69.3509C70.0412 25.0625 70.5313 24.929 70.821 24.6619C71.1136 24.392 71.2599 24.0653 71.2599 23.6818C71.2599 23.3864 71.1847 23.1136 71.0341 22.8636C70.8835 22.6108 70.669 22.4091 70.3906 22.2585C70.1122 22.1051 69.7827 22.0284 69.402 22.0284H67.2543V25.0625ZM67.2543 21.108H69.2145C69.5327 21.108 69.8196 21.0455 70.0753 20.9205C70.3338 20.7955 70.5384 20.6193 70.6889 20.392C70.8423 20.1648 70.919 19.8977 70.919 19.5909C70.919 19.2074 70.7855 18.8821 70.5185 18.6151C70.2514 18.3452 69.8281 18.2102 69.2486 18.2102H67.2543V21.108ZM77.343 17.2727H78.3999V23.5114C78.3999 24.0682 78.2976 24.5412 78.093 24.9304C77.8885 25.3196 77.6001 25.6151 77.228 25.8168C76.8558 26.0185 76.4169 26.1193 75.9112 26.1193C75.4339 26.1193 75.0092 26.0327 74.6371 25.8594C74.2649 25.6832 73.9723 25.4332 73.7592 25.1094C73.5462 24.7855 73.4396 24.4006 73.4396 23.9545H74.4794C74.4794 24.2017 74.5405 24.4176 74.6626 24.6023C74.7876 24.7841 74.9581 24.9261 75.174 25.0284C75.3899 25.1307 75.6357 25.1818 75.9112 25.1818C76.2152 25.1818 76.4737 25.1179 76.6868 24.9901C76.8999 24.8622 77.0618 24.6747 77.1726 24.4276C77.2862 24.1776 77.343 23.8722 77.343 23.5114V17.2727ZM80.5178 26V17.2727H85.7848V18.2102H81.5746V21.1591H85.5121V22.0966H81.5746V25.0625H85.853V26H80.5178ZM94.7124 20H93.6555C93.593 19.696 93.4837 19.429 93.3274 19.1989C93.174 18.9688 92.9865 18.7756 92.7649 18.6193C92.5462 18.4602 92.3033 18.3409 92.0362 18.2614C91.7692 18.1818 91.4908 18.142 91.201 18.142C90.6726 18.142 90.1939 18.2756 89.7649 18.5426C89.3388 18.8097 88.9993 19.2031 88.7464 19.723C88.4964 20.2429 88.3714 20.8807 88.3714 21.6364C88.3714 22.392 88.4964 23.0298 88.7464 23.5497C88.9993 24.0696 89.3388 24.4631 89.7649 24.7301C90.1939 24.9972 90.6726 25.1307 91.201 25.1307C91.4908 25.1307 91.7692 25.0909 92.0362 25.0114C92.3033 24.9318 92.5462 24.8139 92.7649 24.6577C92.9865 24.4986 93.174 24.304 93.3274 24.0739C93.4837 23.8409 93.593 23.5739 93.6555 23.2727H94.7124C94.6328 23.7187 94.4879 24.1179 94.2777 24.4702C94.0675 24.8224 93.8061 25.1222 93.4936 25.3693C93.1811 25.6136 92.8303 25.7997 92.4411 25.9276C92.0547 26.0554 91.6413 26.1193 91.201 26.1193C90.4567 26.1193 89.7947 25.9375 89.2152 25.5739C88.6357 25.2102 88.1797 24.6932 87.8473 24.0227C87.5149 23.3523 87.3487 22.5568 87.3487 21.6364C87.3487 20.7159 87.5149 19.9205 87.8473 19.25C88.1797 18.5795 88.6357 18.0625 89.2152 17.6989C89.7947 17.3352 90.4567 17.1534 91.201 17.1534C91.6413 17.1534 92.0547 17.2173 92.4411 17.3452C92.8303 17.473 93.1811 17.6605 93.4936 17.9077C93.8061 18.152 94.0675 18.4503 94.2777 18.8026C94.4879 19.152 94.6328 19.5511 94.7124 20ZM95.9428 18.2102V17.2727H102.488V18.2102H99.744V26H98.6871V18.2102H95.9428ZM107.852 26H106.744L109.949 17.2727H111.04L114.244 26H113.136L110.528 18.6534H110.46L107.852 26ZM108.261 22.5909H112.727V23.5284H108.261V22.5909ZM115.141 17.2727L117.732 24.6193H117.835L120.425 17.2727H121.533L118.329 26H117.238L114.033 17.2727H115.141ZM123.95 17.2727V26H122.893V17.2727H123.95ZM133.432 21.6364C133.432 22.5568 133.266 23.3523 132.934 24.0227C132.601 24.6932 132.145 25.2102 131.566 25.5739C130.986 25.9375 130.324 26.1193 129.58 26.1193C128.836 26.1193 128.174 25.9375 127.594 25.5739C127.015 25.2102 126.559 24.6932 126.226 24.0227C125.894 23.3523 125.728 22.5568 125.728 21.6364C125.728 20.7159 125.894 19.9205 126.226 19.25C126.559 18.5795 127.015 18.0625 127.594 17.6989C128.174 17.3352 128.836 17.1534 129.58 17.1534C130.324 17.1534 130.986 17.3352 131.566 17.6989C132.145 18.0625 132.601 18.5795 132.934 19.25C133.266 19.9205 133.432 20.7159 133.432 21.6364ZM132.409 21.6364C132.409 20.8807 132.283 20.2429 132.03 19.723C131.78 19.2031 131.441 18.8097 131.012 18.5426C130.586 18.2756 130.108 18.142 129.58 18.142C129.051 18.142 128.573 18.2756 128.144 18.5426C127.718 18.8097 127.378 19.2031 127.125 19.723C126.875 20.2429 126.75 20.8807 126.75 21.6364C126.75 22.392 126.875 23.0298 127.125 23.5497C127.378 24.0696 127.718 24.4631 128.144 24.7301C128.573 24.9972 129.051 25.1307 129.58 25.1307C130.108 25.1307 130.586 24.9972 131.012 24.7301C131.441 24.4631 131.78 24.0696 132.03 23.5497C132.283 23.0298 132.409 22.392 132.409 21.6364ZM142.13 17.2727V26H141.107L136.351 19.1477H136.266V26H135.209V17.2727H136.232L141.005 24.142H141.09V17.2727H142.13Z" fill="#FFFDFD"/>
<defs>
<clipPath id="clip0_23_172">
<rect width="36" height="29" fill="white" transform="translate(8 9)"/>
</clipPath>
</defs>
</svg>
