<svg width="53" height="53" viewBox="0 0 53 53" fill="none" xmlns="http://www.w3.org/2000/svg">
<path d="M27.4807 31.9965C26.9629 31.9965 26.5562 31.5566 26.5562 30.9968V16.9998C26.5562 16.4399 26.9629 16 27.4807 16C27.9984 16 28.4052 16.4399 28.4052 16.9998V30.9968C28.4052 31.5566 27.9984 31.9965 27.4807 31.9965Z" fill="white"/>
<circle cx="26.5" cy="26.5" r="26.5" fill="black"/>
<path d="M27.0185 40C20.3991 40 15 34.3612 15 27.4427C15 22.6238 17.6995 18.1647 21.8783 16.0852C22.3405 15.8652 22.8952 16.0852 23.0986 16.5851C23.302 17.085 23.0986 17.6848 22.6364 17.9048C19.1048 19.6444 16.8305 23.3836 16.8305 27.4427C16.8305 33.2615 21.3975 38.0004 27 38.0004C32.6025 38.0004 37.1695 33.2615 37.1695 27.4427C37.1695 23.4036 34.8952 19.6444 31.3636 17.9048C31.1408 17.7957 30.9671 17.5955 30.8805 17.3482C30.7938 17.1008 30.8013 16.8264 30.9014 16.5851C31.1048 16.0852 31.6595 15.8652 32.1217 16.0852C36.3005 18.1447 39 22.6038 39 27.4427C39 34.3612 33.6009 40 26.9815 40H27.0185Z" fill="white"/>
</svg>
