<svg width="401" height="47" viewBox="0 0 401 47" fill="none" xmlns="http://www.w3.org/2000/svg">
<rect x="28" width="169" height="47" rx="15" fill="black"/>
<path opacity="0.2" fill-rule="evenodd" clip-rule="evenodd" d="M207.737 25C207.737 24.4696 209.434 23.9609 212.454 23.5858C215.474 23.2107 219.571 23 223.842 23H384.895C389.166 23 393.263 23.2107 396.283 23.5858C399.303 23.9609 401 24.4696 401 25C401 25.5304 399.303 26.0391 396.283 26.4142C393.263 26.7893 389.166 27 384.895 27H223.842C219.571 27 215.474 26.7893 212.454 26.4142C209.434 26.0391 207.737 25.5304 207.737 25Z" fill="white"/>
<path d="M92.4205 21.6364C92.4205 22.5568 92.2543 23.3523 91.9219 24.0227C91.5895 24.6932 91.1335 25.2102 90.554 25.5739C89.9744 25.9375 89.3125 26.1193 88.5682 26.1193C87.8239 26.1193 87.1619 25.9375 86.5824 25.5739C86.0028 25.2102 85.5469 24.6932 85.2145 24.0227C84.8821 23.3523 84.7159 22.5568 84.7159 21.6364C84.7159 20.7159 84.8821 19.9205 85.2145 19.25C85.5469 18.5795 86.0028 18.0625 86.5824 17.6989C87.1619 17.3352 87.8239 17.1534 88.5682 17.1534C89.3125 17.1534 89.9744 17.3352 90.554 17.6989C91.1335 18.0625 91.5895 18.5795 91.9219 19.25C92.2543 19.9205 92.4205 20.7159 92.4205 21.6364ZM91.3977 21.6364C91.3977 20.8807 91.2713 20.2429 91.0185 19.723C90.7685 19.2031 90.429 18.8097 90 18.5426C89.5739 18.2756 89.0966 18.142 88.5682 18.142C88.0398 18.142 87.5611 18.2756 87.1321 18.5426C86.706 18.8097 86.3665 19.2031 86.1136 19.723C85.8636 20.2429 85.7386 20.8807 85.7386 21.6364C85.7386 22.392 85.8636 23.0298 86.1136 23.5497C86.3665 24.0696 86.706 24.4631 87.1321 24.7301C87.5611 24.9972 88.0398 25.1307 88.5682 25.1307C89.0966 25.1307 89.5739 24.9972 90 24.7301C90.429 24.4631 90.7685 24.0696 91.0185 23.5497C91.2713 23.0298 91.3977 22.392 91.3977 21.6364ZM94.1974 26V17.2727H97.2486C97.8565 17.2727 98.358 17.3778 98.7528 17.5881C99.1477 17.7955 99.4418 18.0753 99.6349 18.4276C99.8281 18.777 99.9247 19.1648 99.9247 19.5909C99.9247 19.9659 99.858 20.2756 99.7244 20.5199C99.5938 20.7642 99.4205 20.9574 99.2045 21.0994C98.9915 21.2415 98.7599 21.3466 98.5099 21.4148V21.5C98.777 21.517 99.0455 21.6108 99.3153 21.7812C99.5852 21.9517 99.8111 22.196 99.9929 22.5142C100.175 22.8324 100.266 23.2216 100.266 23.6818C100.266 24.1193 100.166 24.5128 99.9673 24.8622C99.7685 25.2116 99.4545 25.4886 99.0256 25.6932C98.5966 25.8977 98.0384 26 97.3509 26H94.1974ZM95.2543 25.0625H97.3509C98.0412 25.0625 98.5313 24.929 98.821 24.6619C99.1136 24.392 99.2599 24.0653 99.2599 23.6818C99.2599 23.3864 99.1847 23.1136 99.0341 22.8636C98.8835 22.6108 98.669 22.4091 98.3906 22.2585C98.1122 22.1051 97.7827 22.0284 97.402 22.0284H95.2543V25.0625ZM95.2543 21.108H97.2145C97.5327 21.108 97.8196 21.0455 98.0753 20.9205C98.3338 20.7955 98.5384 20.6193 98.6889 20.392C98.8423 20.1648 98.919 19.8977 98.919 19.5909C98.919 19.2074 98.7855 18.8821 98.5185 18.6151C98.2514 18.3452 97.8281 18.2102 97.2486 18.2102H95.2543V21.108ZM105.343 17.2727H106.4V23.5114C106.4 24.0682 106.298 24.5412 106.093 24.9304C105.888 25.3196 105.6 25.6151 105.228 25.8168C104.856 26.0185 104.417 26.1193 103.911 26.1193C103.434 26.1193 103.009 26.0327 102.637 25.8594C102.265 25.6832 101.972 25.4332 101.759 25.1094C101.546 24.7855 101.44 24.4006 101.44 23.9545H102.479C102.479 24.2017 102.54 24.4176 102.663 24.6023C102.788 24.7841 102.958 24.9261 103.174 25.0284C103.39 25.1307 103.636 25.1818 103.911 25.1818C104.215 25.1818 104.474 25.1179 104.687 24.9901C104.9 24.8622 105.062 24.6747 105.173 24.4276C105.286 24.1776 105.343 23.8722 105.343 23.5114V17.2727ZM108.518 26V17.2727H113.785V18.2102H109.575V21.1591H113.512V22.0966H109.575V25.0625H113.853V26H108.518ZM122.712 20H121.656C121.593 19.696 121.484 19.429 121.327 19.1989C121.174 18.9688 120.987 18.7756 120.765 18.6193C120.546 18.4602 120.303 18.3409 120.036 18.2614C119.769 18.1818 119.491 18.142 119.201 18.142C118.673 18.142 118.194 18.2756 117.765 18.5426C117.339 18.8097 116.999 19.2031 116.746 19.723C116.496 20.2429 116.371 20.8807 116.371 21.6364C116.371 22.392 116.496 23.0298 116.746 23.5497C116.999 24.0696 117.339 24.4631 117.765 24.7301C118.194 24.9972 118.673 25.1307 119.201 25.1307C119.491 25.1307 119.769 25.0909 120.036 25.0114C120.303 24.9318 120.546 24.8139 120.765 24.6577C120.987 24.4986 121.174 24.304 121.327 24.0739C121.484 23.8409 121.593 23.5739 121.656 23.2727H122.712C122.633 23.7187 122.488 24.1179 122.278 24.4702C122.067 24.8224 121.806 25.1222 121.494 25.3693C121.181 25.6136 120.83 25.7997 120.441 25.9276C120.055 26.0554 119.641 26.1193 119.201 26.1193C118.457 26.1193 117.795 25.9375 117.215 25.5739C116.636 25.2102 116.18 24.6932 115.847 24.0227C115.515 23.3523 115.349 22.5568 115.349 21.6364C115.349 20.7159 115.515 19.9205 115.847 19.25C116.18 18.5795 116.636 18.0625 117.215 17.6989C117.795 17.3352 118.457 17.1534 119.201 17.1534C119.641 17.1534 120.055 17.2173 120.441 17.3452C120.83 17.473 121.181 17.6605 121.494 17.9077C121.806 18.152 122.067 18.4503 122.278 18.8026C122.488 19.152 122.633 19.5511 122.712 20ZM123.943 18.2102V17.2727H130.488V18.2102H127.744V26H126.687V18.2102H123.943ZM135.852 26H134.744L137.949 17.2727H139.04L142.244 26H141.136L138.528 18.6534H138.46L135.852 26ZM136.261 22.5909H140.727V23.5284H136.261V22.5909ZM143.141 17.2727L145.732 24.6193H145.835L148.425 17.2727H149.533L146.329 26H145.238L142.033 17.2727H143.141ZM151.95 17.2727V26H150.893V17.2727H151.95ZM161.432 21.6364C161.432 22.5568 161.266 23.3523 160.934 24.0227C160.601 24.6932 160.145 25.2102 159.566 25.5739C158.986 25.9375 158.324 26.1193 157.58 26.1193C156.836 26.1193 156.174 25.9375 155.594 25.5739C155.015 25.2102 154.559 24.6932 154.226 24.0227C153.894 23.3523 153.728 22.5568 153.728 21.6364C153.728 20.7159 153.894 19.9205 154.226 19.25C154.559 18.5795 155.015 18.0625 155.594 17.6989C156.174 17.3352 156.836 17.1534 157.58 17.1534C158.324 17.1534 158.986 17.3352 159.566 17.6989C160.145 18.0625 160.601 18.5795 160.934 19.25C161.266 19.9205 161.432 20.7159 161.432 21.6364ZM160.409 21.6364C160.409 20.8807 160.283 20.2429 160.03 19.723C159.78 19.2031 159.441 18.8097 159.012 18.5426C158.586 18.2756 158.108 18.142 157.58 18.142C157.051 18.142 156.573 18.2756 156.144 18.5426C155.718 18.8097 155.378 19.2031 155.125 19.723C154.875 20.2429 154.75 20.8807 154.75 21.6364C154.75 22.392 154.875 23.0298 155.125 23.5497C155.378 24.0696 155.718 24.4631 156.144 24.7301C156.573 24.9972 157.051 25.1307 157.58 25.1307C158.108 25.1307 158.586 24.9972 159.012 24.7301C159.441 24.4631 159.78 24.0696 160.03 23.5497C160.283 23.0298 160.409 22.392 160.409 21.6364ZM170.13 17.2727V26H169.107L164.351 19.1477H164.266V26H163.209V17.2727H164.232L169.005 24.142H169.09V17.2727H170.13Z" fill="#FFFDFD"/>
<path fill-rule="evenodd" clip-rule="evenodd" d="M0 23.6667C0 23.4899 0.0776313 23.3203 0.215816 23.1953C0.354001 23.0702 0.541419 23 0.736842 23H27.2632C27.4586 23 27.646 23.0702 27.7842 23.1953C27.9224 23.3203 28 23.4899 28 23.6667C28 23.8435 27.9224 24.013 27.7842 24.1381C27.646 24.2631 27.4586 24.3333 27.2632 24.3333H0.736842C0.541419 24.3333 0.354001 24.2631 0.215816 24.1381C0.0776313 24.013 0 23.8435 0 23.6667Z" fill="white"/>
</svg>
