<svg width="117" height="39" viewBox="0 0 117 39" fill="none" xmlns="http://www.w3.org/2000/svg">
<path opacity="0.2" fill-rule="evenodd" clip-rule="evenodd" d="M6.15796 37C6.15796 36.4696 7.13112 35.9609 8.86337 35.5858C10.5956 35.2107 12.945 35 15.3948 35H107.763C110.213 35 112.562 35.2107 114.295 35.5858C116.027 35.9609 117 36.4696 117 37C117 37.5304 116.027 38.0391 114.295 38.4142C112.562 38.7893 110.213 39 107.763 39H15.3948C12.945 39 10.5956 38.7893 8.86337 38.4142C7.13112 38.0391 6.15796 37.5304 6.15796 37Z" fill="white"/>
<rect width="117" height="34" rx="6" fill="black"/>
<path d="M39.0568 21V12.2727H40.0625V15.4943H40.1477C40.2216 15.3807 40.3239 15.2358 40.4545 15.0597C40.5881 14.8807 40.7784 14.7216 41.0256 14.5824C41.2756 14.4403 41.6136 14.3693 42.0398 14.3693C42.5909 14.3693 43.0767 14.5071 43.4972 14.7827C43.9176 15.0582 44.2457 15.4489 44.4815 15.9545C44.7173 16.4602 44.8352 17.0568 44.8352 17.7443C44.8352 18.4375 44.7173 19.0384 44.4815 19.5469C44.2457 20.0526 43.919 20.4446 43.5014 20.723C43.0838 20.9986 42.6023 21.1364 42.0568 21.1364C41.6364 21.1364 41.2997 21.0668 41.0469 20.9276C40.794 20.7855 40.5994 20.625 40.4631 20.446C40.3267 20.2642 40.2216 20.1136 40.1477 19.9943H40.0284V21H39.0568ZM40.0455 17.7273C40.0455 18.2216 40.1179 18.6577 40.2628 19.0355C40.4077 19.4105 40.6193 19.7045 40.8977 19.9176C41.1761 20.1278 41.517 20.233 41.9205 20.233C42.3409 20.233 42.6918 20.1222 42.973 19.9006C43.2571 19.6761 43.4702 19.375 43.6122 18.9972C43.7571 18.6165 43.8295 18.1932 43.8295 17.7273C43.8295 17.267 43.7585 16.8523 43.6165 16.483C43.4773 16.1108 43.2656 15.8168 42.9815 15.6009C42.7003 15.3821 42.3466 15.2727 41.9205 15.2727C41.5114 15.2727 41.1676 15.3764 40.8892 15.5838C40.6108 15.7884 40.4006 16.0753 40.2585 16.4446C40.1165 16.8111 40.0455 17.2386 40.0455 17.7273ZM47.3793 12.2727V21H46.3736V12.2727H47.3793ZM51.1474 21.1534C50.7326 21.1534 50.3562 21.0753 50.0181 20.919C49.68 20.7599 49.4116 20.5312 49.2127 20.233C49.0138 19.9318 48.9144 19.5682 48.9144 19.142C48.9144 18.767 48.9883 18.4631 49.136 18.2301C49.2837 17.9943 49.4812 17.8097 49.7283 17.6761C49.9755 17.5426 50.2482 17.4432 50.5465 17.3778C50.8477 17.3097 51.1502 17.2557 51.4542 17.2159C51.8519 17.1648 52.1744 17.1264 52.4215 17.1009C52.6715 17.0724 52.8533 17.0256 52.967 16.9602C53.0835 16.8949 53.1417 16.7812 53.1417 16.6193V16.5852C53.1417 16.1648 53.0266 15.8381 52.7965 15.6051C52.5692 15.3722 52.2241 15.2557 51.761 15.2557C51.2809 15.2557 50.9045 15.3608 50.6317 15.571C50.359 15.7812 50.1673 16.0057 50.0565 16.2443L49.1019 15.9034C49.2724 15.5057 49.4996 15.196 49.7837 14.9744C50.0707 14.75 50.3832 14.5937 50.7212 14.5057C51.0621 14.4148 51.3974 14.3693 51.7269 14.3693C51.9371 14.3693 52.1786 14.3949 52.4513 14.446C52.7269 14.4943 52.9925 14.5952 53.2482 14.7486C53.5067 14.902 53.7212 15.1335 53.8917 15.4432C54.0621 15.7528 54.1474 16.1676 54.1474 16.6875V21H53.1417V20.1136H53.0906C53.0224 20.2557 52.9087 20.4077 52.7496 20.5696C52.5906 20.7315 52.3789 20.8693 52.1147 20.983C51.8505 21.0966 51.5281 21.1534 51.1474 21.1534ZM51.3008 20.25C51.6985 20.25 52.0337 20.1719 52.3065 20.0156C52.582 19.8594 52.7894 19.6577 52.9286 19.4105C53.0707 19.1634 53.1417 18.9034 53.1417 18.6307V17.7102C53.0991 17.7614 53.0053 17.8082 52.8604 17.8509C52.7184 17.8906 52.5536 17.9261 52.3661 17.9574C52.1815 17.9858 52.0011 18.0114 51.8249 18.0341C51.6516 18.054 51.511 18.071 51.4031 18.0852C51.1417 18.1193 50.8974 18.1747 50.6701 18.2514C50.4457 18.3253 50.2638 18.4375 50.1246 18.5881C49.9883 18.7358 49.9201 18.9375 49.9201 19.1932C49.9201 19.5426 50.0494 19.8068 50.3079 19.9858C50.5692 20.1619 50.9002 20.25 51.3008 20.25ZM56.9886 17.0625V21H55.983V14.4545H56.9545V15.4773H57.0398C57.1932 15.1449 57.4261 14.8778 57.7386 14.6761C58.0511 14.4716 58.4545 14.3693 58.9489 14.3693C59.392 14.3693 59.7798 14.4602 60.1122 14.642C60.4446 14.821 60.7031 15.0938 60.8878 15.4602C61.0724 15.8239 61.1648 16.2841 61.1648 16.8409V21H60.1591V16.9091C60.1591 16.3949 60.0256 15.9943 59.7585 15.7074C59.4915 15.4176 59.125 15.2727 58.6591 15.2727C58.3381 15.2727 58.0511 15.3423 57.7983 15.4815C57.5483 15.6207 57.3509 15.8239 57.206 16.0909C57.0611 16.358 56.9886 16.6818 56.9886 17.0625ZM65.6616 21.1364C65.0479 21.1364 64.5195 20.9915 64.0763 20.7017C63.6332 20.4119 63.2923 20.0128 63.0536 19.5043C62.815 18.9957 62.6957 18.4148 62.6957 17.7614C62.6957 17.0966 62.8178 16.5099 63.0621 16.0014C63.3093 15.4901 63.6531 15.0909 64.0934 14.804C64.5366 14.5142 65.0536 14.3693 65.6445 14.3693C66.1048 14.3693 66.5195 14.4545 66.8888 14.625C67.2582 14.7955 67.5607 15.0341 67.7965 15.3409C68.0323 15.6477 68.1786 16.0057 68.2354 16.4148H67.2298C67.1531 16.1165 66.9826 15.8523 66.7184 15.6222C66.457 15.3892 66.1048 15.2727 65.6616 15.2727C65.2695 15.2727 64.9258 15.375 64.6303 15.5795C64.3377 15.7812 64.109 16.0668 63.9442 16.4361C63.7823 16.8026 63.7013 17.233 63.7013 17.7273C63.7013 18.233 63.7809 18.6733 63.94 19.0483C64.1019 19.4233 64.3292 19.7145 64.6218 19.9219C64.9173 20.1293 65.2638 20.233 65.6616 20.233C65.9229 20.233 66.1602 20.1875 66.3732 20.0966C66.5863 20.0057 66.7667 19.875 66.9144 19.7045C67.0621 19.5341 67.1673 19.3295 67.2298 19.0909H68.2354C68.1786 19.4773 68.038 19.8253 67.8136 20.1349C67.592 20.4418 67.2979 20.6861 66.9315 20.8679C66.5678 21.0469 66.1445 21.1364 65.6616 21.1364ZM72.3647 21.1364C71.7738 21.1364 71.2553 20.9957 70.8093 20.7145C70.3661 20.4332 70.0195 20.0398 69.7695 19.5341C69.5224 19.0284 69.3988 18.4375 69.3988 17.7614C69.3988 17.0795 69.5224 16.4844 69.7695 15.9759C70.0195 15.4673 70.3661 15.0724 70.8093 14.7912C71.2553 14.5099 71.7738 14.3693 72.3647 14.3693C72.9556 14.3693 73.4727 14.5099 73.9158 14.7912C74.3619 15.0724 74.7085 15.4673 74.9556 15.9759C75.2056 16.4844 75.3306 17.0795 75.3306 17.7614C75.3306 18.4375 75.2056 19.0284 74.9556 19.5341C74.7085 20.0398 74.3619 20.4332 73.9158 20.7145C73.4727 20.9957 72.9556 21.1364 72.3647 21.1364ZM72.3647 20.233C72.8136 20.233 73.1829 20.1179 73.4727 19.8878C73.7624 19.6577 73.9769 19.3551 74.1161 18.9801C74.2553 18.6051 74.3249 18.1989 74.3249 17.7614C74.3249 17.3239 74.2553 16.9162 74.1161 16.5384C73.9769 16.1605 73.7624 15.8551 73.4727 15.6222C73.1829 15.3892 72.8136 15.2727 72.3647 15.2727C71.9158 15.2727 71.5465 15.3892 71.2567 15.6222C70.967 15.8551 70.7525 16.1605 70.6133 16.5384C70.4741 16.9162 70.4045 17.3239 70.4045 17.7614C70.4045 18.1989 70.4741 18.6051 70.6133 18.9801C70.7525 19.3551 70.967 19.6577 71.2567 19.8878C71.5465 20.1179 71.9158 20.233 72.3647 20.233Z" fill="white"/>
</svg>
