<svg width="53" height="53" viewBox="0 0 53 53" fill="none" xmlns="http://www.w3.org/2000/svg">
<circle cx="26.5" cy="26.5" r="26.5" fill="black"/>
<path d="M38.4545 26C38.4545 24.4958 38.1583 23.0063 37.5826 21.6165C37.007 20.2268 36.1632 18.9641 35.0996 17.9004C34.0359 16.8368 32.7732 15.993 31.3835 15.4174C29.9937 14.8417 28.5042 14.5455 27 14.5455C25.4958 14.5455 24.0063 14.8417 22.6165 15.4174C21.2268 15.993 19.9641 16.8368 18.9004 17.9004C17.8368 18.9641 16.993 20.2268 16.4174 21.6165C15.8417 23.0063 15.5455 24.4958 15.5455 26C15.5455 29.0379 16.7523 31.9514 18.9004 34.0996C21.0486 36.2477 23.9621 37.4545 27 37.4545C30.0379 37.4545 32.9514 36.2477 35.0996 34.0996C37.2477 31.9514 38.4545 29.0379 38.4545 26ZM27 12C34.7318 12 41 18.2682 41 26C41 33.7318 34.7318 40 27 40C19.2682 40 13 33.7318 13 26C13 18.2682 19.2682 12 27 12ZM34 27.2727H24.3451L28.1633 31.0909L26.3636 32.8905L19.4731 26L26.3636 19.1095L28.1633 20.9091L24.3451 24.7273H34V27.2727Z" fill="white"/>
</svg>
