<svg width="53" height="53" viewBox="0 0 53 53" fill="none" xmlns="http://www.w3.org/2000/svg">
<circle cx="26.5" cy="26.5" r="26.5" fill="black"/>
<path d="M15.5455 26C15.5455 24.4958 15.8417 23.0063 16.4174 21.6165C16.993 20.2268 17.8368 18.9641 18.9004 17.9004C19.9641 16.8368 21.2268 15.993 22.6165 15.4174C24.0063 14.8417 25.4958 14.5455 27 14.5455C28.5042 14.5455 29.9937 14.8417 31.3835 15.4174C32.7732 15.993 34.0359 16.8368 35.0996 17.9004C36.1632 18.9641 37.007 20.2268 37.5826 21.6165C38.1583 23.0063 38.4545 24.4958 38.4545 26C38.4545 29.0379 37.2477 31.9514 35.0996 34.0996C32.9514 36.2477 30.0379 37.4545 27 37.4545C23.9621 37.4545 21.0486 36.2477 18.9004 34.0996C16.7523 31.9514 15.5455 29.0379 15.5455 26ZM27 12C19.2682 12 13 18.2682 13 26C13 33.7318 19.2682 40 27 40C34.7318 40 41 33.7318 41 26C41 18.2682 34.7318 12 27 12ZM20 27.2727H29.6549L25.8367 31.0909L27.6364 32.8905L34.5269 26L27.6364 19.1095L25.8367 20.9091L29.6549 24.7273H20V27.2727Z" fill="white"/>
</svg>
