<svg width="53" height="53" viewBox="0 0 53 53" fill="none" xmlns="http://www.w3.org/2000/svg">
<circle cx="26.5" cy="26.5" r="26.5" fill="black"/>
<path d="M26.5 13C19.0449 13 13 19.0449 13 26.5C13 33.9551 19.0449 40 26.5 40C33.9551 40 40 33.9551 40 26.5C40 19.0449 33.9551 13 26.5 13ZM26.5 37.7098C20.3105 37.7098 15.2902 32.6895 15.2902 26.5C15.2902 23.8181 16.2334 21.3531 17.8064 19.4246L33.5754 35.1936C31.6469 36.7666 29.1819 37.7098 26.5 37.7098ZM35.1936 33.5754L19.4246 17.8064C21.3531 16.2334 23.8181 15.2902 26.5 15.2902C32.6895 15.2902 37.7098 20.3105 37.7098 26.5C37.7098 29.1819 36.7666 31.6469 35.1936 33.5754Z" fill="white"/>
</svg>
