<svg width="276" height="232" viewBox="0 0 276 232" fill="none" xmlns="http://www.w3.org/2000/svg">
<path d="M37.3797 0C27.466 0 17.9583 3.87507 10.9483 10.7728C3.93821 17.6704 0 27.0257 0 36.7805V155.61C0 165.365 3.93821 174.72 10.9483 181.617C17.9583 188.515 27.466 192.39 37.3797 192.39H238.62C248.534 192.39 258.042 188.515 265.052 181.617C272.062 174.72 276 165.365 276 155.61V36.7805C276 27.0257 272.062 17.6704 265.052 10.7728C258.042 3.87507 248.534 0 238.62 0H37.3797ZM17.2522 36.7805C17.2522 25.8482 26.2693 16.9756 37.3797 16.9756H238.62C249.731 16.9756 258.748 25.8482 258.748 36.7805V155.61C258.748 160.862 256.627 165.9 252.853 169.614C249.078 173.328 243.958 175.415 238.62 175.415H37.3797C32.0415 175.415 26.922 173.328 23.1474 169.614C19.3727 165.9 17.2522 160.862 17.2522 155.61V36.7805ZM54.5858 215.024C52.298 215.024 50.104 215.919 48.4863 217.51C46.8686 219.102 45.9597 221.261 45.9597 223.512C45.9597 225.763 46.8686 227.922 48.4863 229.514C50.104 231.106 52.298 232 54.5858 232H221.357C223.644 232 225.839 231.106 227.456 229.514C229.074 227.922 229.983 225.763 229.983 223.512C229.983 221.261 229.074 219.102 227.456 217.51C225.839 215.919 223.644 215.024 221.357 215.024H54.5858Z" fill="black"/>
</svg>
